<svg width="52" height="52" viewBox="0 0 52 52" fill="none" xmlns="http://www.w3.org/2000/svg">
<g filter="url(#filter0_i_47_287)">
<mask id="mask0_47_287" style="mask-type:luminance" maskUnits="userSpaceOnUse" x="0" y="0" width="52" height="52">
<path d="M52 0H0V52H52V0Z" fill="white"/>
</mask>
<g mask="url(#mask0_47_287)">
<path d="M44.049 9.16029C40.6829 7.58535 37.0837 6.44078 33.3209 5.78906C32.8588 6.62456 32.319 7.7483 31.9467 8.64224C27.9468 8.0407 23.9835 8.0407 20.0572 8.64224C19.685 7.7483 19.1328 6.62456 18.6666 5.78906C14.8998 6.44078 11.2964 7.58956 7.93041 9.16858C1.14106 19.4282 -0.699424 29.433 0.22082 39.2957C4.72388 42.6584 9.08789 44.7012 13.3782 46.038C14.4376 44.5801 15.3823 43.0302 16.1962 41.397C14.6461 40.8079 13.1614 40.0811 11.7587 39.2373C12.1308 38.9615 12.4949 38.6733 12.8465 38.3766C21.4028 42.3786 30.6993 42.3786 39.1532 38.3766C39.5091 38.6733 39.873 38.9615 40.2412 39.2373C38.8342 40.0852 37.3455 40.812 35.7954 41.4011C36.6093 43.0302 37.55 44.5843 38.6134 46.0421C42.9079 44.7054 47.276 42.6627 51.779 39.2957C52.8587 27.8622 49.9345 17.9494 44.049 9.16029ZM17.3619 33.2302C14.7934 33.2302 12.687 30.8323 12.687 27.9124C12.687 24.9924 14.7484 22.5904 17.3619 22.5904C19.9754 22.5904 22.0817 24.9882 22.0367 27.9124C22.0408 30.8323 19.9754 33.2302 17.3619 33.2302ZM34.6379 33.2302C32.0695 33.2302 29.9631 30.8323 29.9631 27.9124C29.9631 24.9924 32.0244 22.5904 34.6379 22.5904C37.2514 22.5904 39.3577 24.9882 39.3128 27.9124C39.3128 30.8323 37.2514 33.2302 34.6379 33.2302Z" fill="#ADEBDC"/>
</g>
</g>
<defs>
<filter id="filter0_i_47_287" x="0" y="5.78906" width="52" height="44.2529" filterUnits="userSpaceOnUse" color-interpolation-filters="sRGB">
<feFlood flood-opacity="0" result="BackgroundImageFix"/>
<feBlend mode="normal" in="SourceGraphic" in2="BackgroundImageFix" result="shape"/>
<feColorMatrix in="SourceAlpha" type="matrix" values="0 0 0 0 0 0 0 0 0 0 0 0 0 0 0 0 0 0 127 0" result="hardAlpha"/>
<feOffset dy="4"/>
<feGaussianBlur stdDeviation="2"/>
<feComposite in2="hardAlpha" operator="arithmetic" k2="-1" k3="1"/>
<feColorMatrix type="matrix" values="0 0 0 0 0.00784314 0 0 0 0 0.109804 0 0 0 0 0.207843 0 0 0 0.5 0"/>
<feBlend mode="normal" in2="shape" result="effect1_innerShadow_47_287"/>
</filter>
</defs>
</svg>
