<svg xmlns="http://www.w3.org/2000/svg" fill="none" viewBox="48.04 123.13 82.88 43.88">
<g filter="url(#filter0_d_165_530)">
<path d="M80.74 144C80.596 144 80.48 143.96 80.392 143.88C80.312 143.792 80.272 143.676 80.272 143.532V137.904C80.272 137.76 80.312 137.648 80.392 137.568C80.48 137.48 80.596 137.436 80.74 137.436C80.876 137.436 80.984 137.48 81.064 137.568C81.152 137.648 81.196 137.76 81.196 137.904V143.532C81.196 143.676 81.152 143.792 81.064 143.88C80.984 143.96 80.876 144 80.74 144ZM80.728 136.188C80.552 136.188 80.4 136.124 80.272 135.996C80.144 135.868 80.08 135.712 80.08 135.528C80.08 135.328 80.144 135.172 80.272 135.06C80.408 134.94 80.564 134.88 80.74 134.88C80.908 134.88 81.056 134.94 81.184 135.06C81.32 135.172 81.388 135.328 81.388 135.528C81.388 135.712 81.324 135.868 81.196 135.996C81.068 136.124 80.912 136.188 80.728 136.188ZM84.3648 144C84.2448 144 84.1408 143.96 84.0527 143.88C83.9648 143.792 83.9208 143.676 83.9208 143.532V137.448C83.9208 136.888 84.0168 136.396 84.2088 135.972C84.4008 135.548 84.6848 135.22 85.0608 134.988C85.4368 134.748 85.8968 134.628 86.4408 134.628C86.5768 134.628 86.6888 134.668 86.7768 134.748C86.8648 134.828 86.9088 134.928 86.9088 135.048C86.9088 135.168 86.8648 135.268 86.7768 135.348C86.6888 135.428 86.5768 135.468 86.4408 135.468C86.0808 135.468 85.7808 135.552 85.5408 135.72C85.3088 135.88 85.1328 136.108 85.0128 136.404C84.9008 136.692 84.8448 137.024 84.8448 137.4V143.532C84.8448 143.676 84.8008 143.792 84.7128 143.88C84.6328 143.96 84.5168 144 84.3648 144ZM83.1528 138.48C83.0248 138.48 82.9208 138.444 82.8408 138.372C82.7688 138.292 82.7328 138.196 82.7328 138.084C82.7328 137.964 82.7688 137.868 82.8408 137.796C82.9208 137.716 83.0248 137.676 83.1528 137.676H86.2848C86.4128 137.676 86.5128 137.716 86.5848 137.796C86.6648 137.868 86.7048 137.964 86.7048 138.084C86.7048 138.196 86.6648 138.292 86.5848 138.372C86.5128 138.444 86.4128 138.48 86.2848 138.48H83.1528ZM88.5313 144C88.3953 144 88.2833 143.956 88.1953 143.868C88.1073 143.78 88.0633 143.668 88.0633 143.532V135.096C88.0633 134.96 88.1073 134.848 88.1953 134.76C88.2833 134.672 88.3953 134.628 88.5313 134.628H90.7753C91.3593 134.628 91.8793 134.752 92.3353 135C92.7913 135.24 93.1473 135.58 93.4033 136.02C93.6673 136.452 93.7993 136.952 93.7993 137.52C93.7993 138.064 93.6673 138.548 93.4033 138.972C93.1473 139.396 92.7913 139.728 92.3353 139.968C91.8793 140.208 91.3593 140.328 90.7753 140.328H88.9993V143.532C88.9993 143.668 88.9553 143.78 88.8673 143.868C88.7793 143.956 88.6673 144 88.5313 144ZM93.5473 144C93.4433 144 93.3593 143.98 93.2953 143.94C93.2393 143.9 93.1873 143.84 93.1393 143.76L90.8353 140.088L91.7713 139.848L93.9193 143.28C94.0393 143.472 94.0593 143.64 93.9793 143.784C93.9073 143.928 93.7633 144 93.5473 144ZM88.9993 139.428H90.7753C91.1833 139.428 91.5433 139.348 91.8553 139.188C92.1753 139.02 92.4273 138.792 92.6113 138.504C92.7953 138.216 92.8873 137.888 92.8873 137.52C92.8873 137.128 92.7953 136.784 92.6113 136.488C92.4273 136.184 92.1753 135.948 91.8553 135.78C91.5433 135.612 91.1833 135.528 90.7753 135.528H88.9993V139.428ZM98.3373 144.06C97.6893 144.06 97.1133 143.92 96.6093 143.64C96.1133 143.352 95.7212 142.956 95.4333 142.452C95.1533 141.948 95.0133 141.372 95.0133 140.724C95.0133 140.068 95.1453 139.492 95.4093 138.996C95.6813 138.492 96.0533 138.096 96.5253 137.808C96.9973 137.52 97.5413 137.376 98.1573 137.376C98.7653 137.376 99.2933 137.516 99.7413 137.796C100.197 138.068 100.549 138.448 100.797 138.936C101.045 139.424 101.169 139.98 101.169 140.604C101.169 140.732 101.129 140.836 101.049 140.916C100.969 140.988 100.865 141.024 100.737 141.024H95.6373V140.256H100.833L100.317 140.628C100.325 140.164 100.241 139.748 100.065 139.38C99.8893 139.012 99.6373 138.724 99.3093 138.516C98.9893 138.308 98.6053 138.204 98.1573 138.204C97.7013 138.204 97.3013 138.312 96.9573 138.528C96.6133 138.744 96.3453 139.044 96.1533 139.428C95.9693 139.804 95.8773 140.236 95.8773 140.724C95.8773 141.212 95.9813 141.644 96.1893 142.02C96.4053 142.396 96.6973 142.692 97.0653 142.908C97.4333 143.124 97.8573 143.232 98.3373 143.232C98.6253 143.232 98.9133 143.184 99.2013 143.088C99.4973 142.984 99.7333 142.856 99.9093 142.704C99.9973 142.632 100.097 142.596 100.209 142.596C100.321 142.588 100.417 142.616 100.497 142.68C100.601 142.776 100.653 142.88 100.653 142.992C100.661 143.104 100.617 143.2 100.521 143.28C100.257 143.504 99.9213 143.692 99.5133 143.844C99.1053 143.988 98.7133 144.06 98.3373 144.06ZM105.39 144.06C104.774 144.06 104.222 143.916 103.734 143.628C103.246 143.332 102.858 142.932 102.57 142.428C102.29 141.924 102.15 141.356 102.15 140.724C102.15 140.084 102.294 139.512 102.582 139.008C102.878 138.504 103.278 138.108 103.782 137.82C104.286 137.524 104.854 137.376 105.486 137.376C106.118 137.376 106.682 137.524 107.178 137.82C107.682 138.108 108.078 138.504 108.366 139.008C108.662 139.512 108.814 140.084 108.822 140.724L108.45 141.012C108.45 141.588 108.314 142.108 108.042 142.572C107.778 143.028 107.414 143.392 106.95 143.664C106.494 143.928 105.974 144.06 105.39 144.06ZM105.486 143.22C105.95 143.22 106.362 143.112 106.722 142.896C107.09 142.68 107.378 142.384 107.586 142.008C107.802 141.624 107.91 141.196 107.91 140.724C107.91 140.244 107.802 139.816 107.586 139.44C107.378 139.064 107.09 138.768 106.722 138.552C106.362 138.328 105.95 138.216 105.486 138.216C105.03 138.216 104.618 138.328 104.25 138.552C103.882 138.768 103.59 139.064 103.374 139.44C103.158 139.816 103.05 140.244 103.05 140.724C103.05 141.196 103.158 141.624 103.374 142.008C103.59 142.384 103.882 142.68 104.25 142.896C104.618 143.112 105.03 143.22 105.486 143.22ZM108.354 144C108.218 144 108.106 143.96 108.018 143.88C107.93 143.792 107.886 143.68 107.886 143.544V141.492L108.114 140.544L108.822 140.724V143.544C108.822 143.68 108.778 143.792 108.69 143.88C108.602 143.96 108.49 144 108.354 144ZM113.607 144.06C112.975 144.06 112.407 143.916 111.903 143.628C111.399 143.332 110.999 142.932 110.703 142.428C110.415 141.924 110.271 141.352 110.271 140.712C110.271 140.08 110.411 139.512 110.691 139.008C110.979 138.504 111.367 138.108 111.855 137.82C112.343 137.524 112.895 137.376 113.511 137.376C114.047 137.376 114.531 137.492 114.963 137.724C115.395 137.948 115.743 138.248 116.007 138.624V135.096C116.007 134.952 116.051 134.84 116.139 134.76C116.227 134.672 116.339 134.628 116.475 134.628C116.611 134.628 116.723 134.672 116.811 134.76C116.899 134.84 116.943 134.952 116.943 135.096V140.76C116.927 141.384 116.771 141.948 116.475 142.452C116.187 142.948 115.791 143.34 115.287 143.628C114.791 143.916 114.231 144.06 113.607 144.06ZM113.607 143.22C114.071 143.22 114.483 143.112 114.843 142.896C115.211 142.672 115.499 142.372 115.707 141.996C115.923 141.62 116.031 141.192 116.031 140.712C116.031 140.24 115.923 139.816 115.707 139.44C115.499 139.056 115.211 138.756 114.843 138.54C114.483 138.324 114.071 138.216 113.607 138.216C113.151 138.216 112.739 138.324 112.371 138.54C112.003 138.756 111.711 139.056 111.495 139.44C111.279 139.816 111.171 140.24 111.171 140.712C111.171 141.192 111.279 141.62 111.495 141.996C111.711 142.372 112.003 142.672 112.371 142.896C112.739 143.112 113.151 143.22 113.607 143.22ZM121.395 144.06C120.923 144.06 120.455 143.98 119.991 143.82C119.527 143.66 119.151 143.42 118.863 143.1C118.775 143.004 118.739 142.896 118.755 142.776C118.771 142.656 118.831 142.552 118.935 142.464C119.047 142.384 119.163 142.352 119.283 142.368C119.403 142.384 119.503 142.436 119.583 142.524C119.775 142.748 120.027 142.92 120.339 143.04C120.659 143.16 121.011 143.22 121.395 143.22C121.987 143.22 122.415 143.12 122.679 142.92C122.943 142.712 123.079 142.464 123.087 142.176C123.087 141.888 122.951 141.652 122.679 141.468C122.407 141.276 121.959 141.128 121.335 141.024C120.527 140.896 119.935 140.672 119.559 140.352C119.183 140.032 118.995 139.652 118.995 139.212C118.995 138.804 119.103 138.464 119.319 138.192C119.535 137.92 119.823 137.716 120.183 137.58C120.543 137.444 120.939 137.376 121.371 137.376C121.907 137.376 122.367 137.468 122.751 137.652C123.143 137.836 123.459 138.084 123.699 138.396C123.779 138.5 123.811 138.608 123.795 138.72C123.779 138.832 123.715 138.924 123.603 138.996C123.507 139.052 123.395 139.072 123.267 139.056C123.147 139.032 123.043 138.972 122.955 138.876C122.755 138.644 122.523 138.476 122.259 138.372C121.995 138.26 121.691 138.204 121.347 138.204C120.907 138.204 120.555 138.296 120.291 138.48C120.027 138.656 119.895 138.88 119.895 139.152C119.895 139.336 119.943 139.496 120.039 139.632C120.143 139.768 120.315 139.888 120.555 139.992C120.803 140.096 121.147 140.184 121.587 140.256C122.187 140.352 122.659 140.496 123.003 140.688C123.355 140.872 123.603 141.092 123.747 141.348C123.899 141.596 123.975 141.868 123.975 142.164C123.975 142.54 123.863 142.872 123.639 143.16C123.423 143.44 123.119 143.66 122.727 143.82C122.343 143.98 121.899 144.06 121.395 144.06Z" fill="url(#paint0_linear_165_530)"/>
</g>
<g filter="url(#filter1_d_165_530)">
<path d="M94 146.5C93.7239 146.5 93.5 146.724 93.5 147C93.5 147.276 93.7239 147.5 94 147.5V146.5ZM130.922 147L128.036 144.113L125.149 147L128.036 149.887L130.922 147ZM96.8363 147.5C97.1124 147.5 97.3363 147.276 97.3363 147C97.3363 146.724 97.1124 146.5 96.8363 146.5V147.5ZM102.509 146.5C102.233 146.5 102.009 146.724 102.009 147C102.009 147.276 102.233 147.5 102.509 147.5V146.5ZM108.182 147.5C108.458 147.5 108.682 147.276 108.682 147C108.682 146.724 108.458 146.5 108.182 146.5V147.5ZM113.854 146.5C113.578 146.5 113.354 146.724 113.354 147C113.354 147.276 113.578 147.5 113.854 147.5V146.5ZM119.527 147.5C119.803 147.5 120.027 147.276 120.027 147C120.027 146.724 119.803 146.5 119.527 146.5V147.5ZM125.199 146.5C124.923 146.5 124.699 146.724 124.699 147C124.699 147.276 124.923 147.5 125.199 147.5V146.5ZM94 147.5H96.8363V146.5H94V147.5ZM102.509 147.5H108.182V146.5H102.509V147.5ZM113.854 147.5H119.527V146.5H113.854V147.5ZM125.199 147.5H128.036V146.5H125.199V147.5Z" fill="#57A79E"/>
</g>
<g clip-path="url(#clip0_165_530)">
<path d="M56.3587 144.524C56.3587 144.792 56.9241 145.15 57.6226 145.285C59.8844 145.822 61.8467 146.852 63.6761 148.464L65.5054 150.12L64.5076 148.688C63.9754 147.882 62.5785 146.628 61.4476 145.867C59.2857 144.434 56.3587 143.673 56.3587 144.524Z" fill="url(#paint1_linear_165_530)"/>
<path d="M75.5835 144.792C73.0224 146.046 69.7628 149.225 69.7628 150.523C69.7628 151.061 70.162 150.971 71.8583 149.896C74.9515 147.971 77.1135 147.3 80.5394 147.3C83.6326 147.3 84.6305 147.076 84.6305 146.359C84.6305 146.135 83.1337 145.956 81.3376 145.956C77.6124 145.956 74.6522 146.941 71.7585 149.18C70.7939 149.896 69.9957 150.434 69.9957 150.299C69.9957 150.21 70.7939 149.404 71.7585 148.508C73.6544 146.762 75.3507 145.822 77.5792 145.285C78.3442 145.106 78.9761 144.792 78.9761 144.568C78.9761 143.986 77.0137 144.121 75.5835 144.792Z" fill="url(#paint2_linear_165_530)"/>
<path d="M51.037 146.583C51.037 147.21 51.5359 147.3 54.4628 147.3C58.4209 147.3 60.9154 148.061 63.7426 150.076C65.9378 151.643 66.1707 152.359 63.9754 150.881C61.9133 149.449 60.1837 148.688 57.7224 148.15C55.0948 147.613 49.2741 148.061 49.4737 148.822C49.5402 149.135 51.2033 149.314 54.5626 149.359C59.8511 149.404 61.5141 149.852 64.8402 152.09C65.8048 152.762 66.337 152.986 66.0709 152.583C65.8713 152.225 65.7715 151.777 65.8713 151.643C66.1707 151.24 63.2437 148.867 60.7491 147.479C58.9198 146.494 57.8554 146.225 54.7954 146.046C51.4694 145.867 51.037 145.912 51.037 146.583Z" fill="url(#paint3_linear_165_530)"/>
<path d="M76.6146 148.419C73.8207 149.135 71.6255 150.255 69.7629 152.001C68.1663 153.434 68.4989 153.434 70.5944 152.001C73.6876 149.896 75.7831 149.359 80.9385 149.359C84.4642 149.314 85.7613 149.18 85.8611 148.732C85.9609 148.374 85.6615 148.195 85.0296 148.195C84.4974 148.195 82.9674 148.105 81.6037 147.971C80.1735 147.837 78.1113 148.016 76.6146 148.419Z" fill="url(#paint4_linear_165_530)"/>
<path d="M52.7665 150.434C52.1678 150.613 51.0037 151.105 50.1722 151.553L48.7087 152.314L49.507 153.165C50.272 153.971 50.405 153.971 52.4339 153.299C56.525 151.866 61.5141 153.075 65.705 156.478L67.6674 158.09L69.5633 156.523C73.6876 153.075 78.9761 151.822 82.9674 153.299C84.6637 153.881 84.8633 153.881 85.7281 153.165L86.6594 152.404L85.7613 151.822C81.4041 149.18 75.5835 149.583 70.3948 152.896C69.0311 153.747 67.8004 154.463 67.6009 154.463C67.4346 154.463 66.2039 153.747 64.9068 152.896C61.115 150.389 56.0594 149.359 52.7665 150.434Z" fill="url(#paint5_linear_165_530)"/>
</g>
<path d="M66.2423 123.139C66.2224 123.159 65.9538 123.212 65.6455 123.243C64.9492 123.306 63.2284 123.892 62.373 124.342C60.125 125.534 58.3346 127.417 57.2106 129.781C55.6291 133.097 55.6291 137.25 57.2106 140.556C57.5587 141.277 58.066 142.156 58.3744 142.543C58.9016 143.233 60.324 144.667 60.9009 145.085C61.816 145.765 63.4472 146.549 64.5712 146.863C65.6355 147.167 65.5659 147.156 67.4856 147.167C69.1467 147.167 69.5744 147.114 70.7382 146.78C71.6135 146.518 73.016 145.828 73.9212 145.2C74.8661 144.552 76.4178 142.93 77.0345 141.936C79.2924 138.359 79.6107 133.568 77.8303 129.833C77.0047 128.107 75.4033 126.151 74.0207 125.199C72.6778 124.268 70.5592 123.369 69.3656 123.222C68.7986 123.159 66.292 123.097 66.2423 123.139ZM68.2416 124.98C71.4743 125.524 73.4537 126.664 75.2143 129.007C76.0299 130.095 76.7063 131.706 77.0146 133.285C77.1638 134.059 77.1638 136.319 77.0146 137.104C76.5173 139.698 74.9457 142.187 72.8469 143.715C72.1904 144.185 70.5094 144.939 69.6938 145.116C68.3311 145.42 67.2767 145.462 66.2124 145.284C65.2178 145.106 65.1979 145.106 64.3226 144.792C63.2284 144.416 62.4625 143.987 61.6071 143.307C59.2895 141.445 57.9666 138.725 57.7875 135.43C57.7477 134.666 57.9964 132.992 58.2849 132.009C58.454 131.434 58.9115 130.273 59.0806 129.99C60.0952 128.264 61.9751 126.538 63.6661 125.816C64.3822 125.503 65.6654 125.147 66.6103 124.99C67.4657 124.854 67.5155 124.854 68.2416 124.98Z" fill="url(#paint6_linear_165_530)"/>
<path d="M61.5474 128.536C60.4533 129.572 59.3691 131.601 59.0309 133.233C58.7921 134.394 58.8021 136.047 59.0408 137.156C59.2298 138.055 59.8863 139.625 60.3836 140.378C60.871 141.131 61.6568 141.978 62.3133 142.47C63.298 143.213 64.8 143.934 65.6654 144.091C66.9087 144.311 68.1421 144.311 69.3457 144.091C70.3304 143.903 72.1208 142.993 72.8867 142.271L73.3741 141.811L72.4789 142.135C71.4842 142.501 71.3151 142.533 70.1911 142.543C69.2959 142.554 68.6196 142.376 68.0426 141.978L67.6647 141.706L67.2469 141.936C65.9339 142.658 63.9744 141.936 63.0394 140.399C62.363 139.3 62.2138 138.233 62.5918 137.302C62.7808 136.852 62.7907 136.737 62.6913 136.34C62.6018 136.026 62.6018 135.765 62.6714 135.43C62.7211 135.168 62.7907 134.603 62.8305 134.164C62.9101 133.244 62.8405 133.034 62.1939 132.292C61.7364 131.758 61.6966 131.528 61.995 130.921C62.184 130.524 62.184 130.471 62.0447 129.938C61.8557 129.289 61.8458 128.861 61.9851 128.463C62.0447 128.306 62.0746 128.16 62.0547 128.139C62.0248 128.118 61.806 128.296 61.5474 128.536Z" fill="url(#paint7_linear_165_530)"/>
<path d="M64.1435 136.936C63.6661 137.124 63.4771 137.292 63.308 137.7C62.8902 138.767 63.6462 140.367 64.9193 141.058C65.5559 141.403 66.3517 141.455 66.859 141.183C67.6348 140.765 67.7542 139.625 67.1574 138.516C66.5108 137.323 65.1083 136.58 64.1435 136.936Z" fill="url(#paint8_linear_165_530)"/>
<path d="M69.9226 140.712C69.4352 140.995 69.4451 141.591 69.9425 141.863C70.4995 142.166 71.2853 141.989 71.3947 141.528C71.4842 141.183 71.3848 141.005 71.0167 140.765C70.6288 140.524 70.2906 140.503 69.9226 140.712Z" fill="url(#paint9_linear_165_530)"/>
<defs>
<filter id="filter0_d_165_530" x="76.08" y="134.628" width="51.8954" height="17.432" filterUnits="userSpaceOnUse" color-interpolation-filters="sRGB">
<feFlood flood-opacity="0" result="BackgroundImageFix"/>
<feColorMatrix in="SourceAlpha" type="matrix" values="0 0 0 0 0 0 0 0 0 0 0 0 0 0 0 0 0 0 127 0" result="hardAlpha"/>
<feOffset dy="4"/>
<feGaussianBlur stdDeviation="2"/>
<feComposite in2="hardAlpha" operator="out"/>
<feColorMatrix type="matrix" values="0 0 0 0 0.266667 0 0 0 0 0.164706 0 0 0 0 0.207843 0 0 0 1 0"/>
<feBlend mode="normal" in2="BackgroundImageFix" result="effect1_dropShadow_165_530"/>
<feBlend mode="normal" in="SourceGraphic" in2="effect1_dropShadow_165_530" result="shape"/>
</filter>
<filter id="filter1_d_165_530" x="89.5" y="144.113" width="45.4224" height="13.7735" filterUnits="userSpaceOnUse" color-interpolation-filters="sRGB">
<feFlood flood-opacity="0" result="BackgroundImageFix"/>
<feColorMatrix in="SourceAlpha" type="matrix" values="0 0 0 0 0 0 0 0 0 0 0 0 0 0 0 0 0 0 127 0" result="hardAlpha"/>
<feOffset dy="4"/>
<feGaussianBlur stdDeviation="2"/>
<feComposite in2="hardAlpha" operator="out"/>
<feColorMatrix type="matrix" values="0 0 0 0 0.266667 0 0 0 0 0.164706 0 0 0 0 0.207843 0 0 0 1 0"/>
<feBlend mode="normal" in2="BackgroundImageFix" result="effect1_dropShadow_165_530"/>
<feBlend mode="normal" in="SourceGraphic" in2="effect1_dropShadow_165_530" result="shape"/>
</filter>
<linearGradient id="paint0_linear_165_530" x1="102" y1="134" x2="102" y2="147" gradientUnits="userSpaceOnUse">
<stop stop-color="#57A79E"/>
<stop offset="1" stop-color="#ADEBDC"/>
</linearGradient>
<linearGradient id="paint1_linear_165_530" x1="60.9321" y1="150.12" x2="60.9321" y2="144.167" gradientUnits="userSpaceOnUse">
<stop stop-color="#ADEBDC"/>
<stop offset="1" stop-color="#57A79E"/>
</linearGradient>
<linearGradient id="paint2_linear_165_530" x1="77.1967" y1="150.845" x2="77.1967" y2="144.201" gradientUnits="userSpaceOnUse">
<stop stop-color="#ADEBDC"/>
<stop offset="1" stop-color="#57A79E"/>
</linearGradient>
<linearGradient id="paint3_linear_165_530" x1="57.804" y1="152.784" x2="57.804" y2="145.956" gradientUnits="userSpaceOnUse">
<stop stop-color="#ADEBDC"/>
<stop offset="1" stop-color="#57A79E"/>
</linearGradient>
<linearGradient id="paint4_linear_165_530" x1="77.3199" y1="153.075" x2="77.3199" y2="147.927" gradientUnits="userSpaceOnUse">
<stop stop-color="#ADEBDC"/>
<stop offset="1" stop-color="#57A79E"/>
</linearGradient>
<linearGradient id="paint5_linear_165_530" x1="67.684" y1="158.09" x2="67.684" y2="150.011" gradientUnits="userSpaceOnUse">
<stop stop-color="#ADEBDC"/>
<stop offset="1" stop-color="#57A79E"/>
</linearGradient>
<linearGradient id="paint6_linear_165_530" x1="67.5" y1="147.167" x2="67.5" y2="123.125" gradientUnits="userSpaceOnUse">
<stop stop-color="#ADEBDC"/>
<stop offset="1" stop-color="#57A79E"/>
</linearGradient>
<linearGradient id="paint7_linear_165_530" x1="66.1154" y1="144.256" x2="66.1154" y2="128.137" gradientUnits="userSpaceOnUse">
<stop stop-color="#ADEBDC"/>
<stop offset="1" stop-color="#57A79E"/>
</linearGradient>
<linearGradient id="paint8_linear_165_530" x1="65.3636" y1="141.357" x2="65.3636" y2="136.847" gradientUnits="userSpaceOnUse">
<stop stop-color="#ADEBDC"/>
<stop offset="1" stop-color="#57A79E"/>
</linearGradient>
<linearGradient id="paint9_linear_165_530" x1="70.4943" y1="142.013" x2="70.4943" y2="140.569" gradientUnits="userSpaceOnUse">
<stop stop-color="#ADEBDC"/>
<stop offset="1" stop-color="#57A79E"/>
</linearGradient>
<clipPath id="clip0_165_530">
<rect width="39.913" height="31.7893" fill="white" transform="translate(48.0435 135.211)"/>
</clipPath>
</defs>
</svg>