<svg xmlns="http://www.w3.org/2000/svg" fill="none" viewBox="48.04 123.13 39.91 43.88">
<g clip-path="url(#clip0_47_115)">
<path d="M56.3587 144.524C56.3587 144.792 56.9241 145.15 57.6226 145.285C59.8844 145.822 61.8467 146.852 63.6761 148.464L65.5054 150.12L64.5076 148.688C63.9754 147.882 62.5785 146.628 61.4476 145.867C59.2857 144.434 56.3587 143.673 56.3587 144.524Z" fill="url(#paint0_linear_47_115)"/>
<path d="M75.5835 144.792C73.0224 146.046 69.7628 149.225 69.7628 150.523C69.7628 151.061 70.162 150.971 71.8583 149.896C74.9515 147.971 77.1135 147.3 80.5394 147.3C83.6326 147.3 84.6304 147.076 84.6304 146.359C84.6304 146.135 83.1337 145.956 81.3376 145.956C77.6124 145.956 74.6522 146.941 71.7585 149.18C70.7939 149.896 69.9957 150.434 69.9957 150.299C69.9957 150.21 70.7939 149.404 71.7585 148.508C73.6544 146.762 75.3507 145.822 77.5791 145.285C78.3441 145.106 78.9761 144.792 78.9761 144.568C78.9761 143.986 77.0137 144.121 75.5835 144.792Z" fill="url(#paint1_linear_47_115)"/>
<path d="M51.037 146.583C51.037 147.21 51.5359 147.3 54.4628 147.3C58.4209 147.3 60.9154 148.061 63.7426 150.076C65.9378 151.643 66.1707 152.359 63.9754 150.881C61.9133 149.449 60.1837 148.688 57.7224 148.15C55.0948 147.613 49.2741 148.061 49.4737 148.822C49.5402 149.135 51.2033 149.314 54.5626 149.359C59.8511 149.404 61.5141 149.852 64.8402 152.09C65.8048 152.762 66.337 152.986 66.0709 152.583C65.8713 152.225 65.7715 151.777 65.8713 151.643C66.1707 151.24 63.2437 148.867 60.7491 147.479C58.9198 146.494 57.8554 146.225 54.7954 146.046C51.4693 145.867 51.037 145.912 51.037 146.583Z" fill="url(#paint2_linear_47_115)"/>
<path d="M76.6146 148.419C73.8207 149.135 71.6254 150.255 69.7628 152.001C68.1663 153.434 68.4989 153.434 70.5943 152.001C73.6876 149.896 75.783 149.359 80.9385 149.359C84.4641 149.314 85.7613 149.18 85.8611 148.732C85.9609 148.374 85.6615 148.195 85.0296 148.195C84.4974 148.195 82.9674 148.105 81.6037 147.971C80.1735 147.837 78.1113 148.016 76.6146 148.419Z" fill="url(#paint3_linear_47_115)"/>
<path d="M52.7665 150.434C52.1678 150.613 51.0037 151.105 50.1722 151.553L48.7087 152.314L49.507 153.165C50.272 153.971 50.405 153.971 52.4339 153.299C56.525 151.866 61.5141 153.075 65.705 156.478L67.6674 158.09L69.5633 156.523C73.6876 153.075 78.9761 151.822 82.9674 153.299C84.6637 153.881 84.8633 153.881 85.728 153.165L86.6593 152.404L85.7613 151.822C81.4041 149.18 75.5835 149.583 70.3948 152.896C69.0311 153.747 67.8004 154.463 67.6009 154.463C67.4346 154.463 66.2039 153.747 64.9067 152.896C61.115 150.389 56.0593 149.359 52.7665 150.434Z" fill="url(#paint4_linear_47_115)"/>
</g>
<path d="M66.2423 123.139C66.2224 123.159 65.9538 123.212 65.6455 123.243C64.9492 123.306 63.2284 123.892 62.373 124.342C60.125 125.534 58.3346 127.417 57.2106 129.781C55.6291 133.097 55.6291 137.25 57.2106 140.556C57.5587 141.277 58.066 142.156 58.3744 142.543C58.9016 143.233 60.3239 144.667 60.9009 145.085C61.816 145.765 63.4472 146.549 64.5712 146.863C65.6355 147.167 65.5659 147.156 67.4856 147.167C69.1467 147.167 69.5744 147.114 70.7382 146.78C71.6135 146.518 73.016 145.828 73.9212 145.2C74.8661 144.552 76.4178 142.93 77.0345 141.936C79.2924 138.359 79.6107 133.568 77.8303 129.833C77.0047 128.107 75.4032 126.151 74.0206 125.199C72.6778 124.268 70.5592 123.369 69.3656 123.222C68.7986 123.159 66.292 123.097 66.2423 123.139ZM68.2416 124.98C71.4743 125.524 73.4537 126.664 75.2143 129.007C76.0299 130.095 76.7063 131.706 77.0146 133.285C77.1638 134.059 77.1638 136.319 77.0146 137.104C76.5173 139.698 74.9457 142.187 72.8469 143.715C72.1904 144.185 70.5094 144.939 69.6938 145.116C68.3311 145.42 67.2767 145.462 66.2124 145.284C65.2178 145.106 65.1979 145.106 64.3225 144.792C63.2284 144.416 62.4625 143.987 61.6071 143.307C59.2895 141.445 57.9666 138.725 57.7875 135.43C57.7477 134.666 57.9964 132.992 58.2849 132.009C58.454 131.434 58.9115 130.273 59.0806 129.99C60.0952 128.264 61.9751 126.538 63.6661 125.816C64.3822 125.503 65.6654 125.147 66.6103 124.99C67.4657 124.854 67.5155 124.854 68.2416 124.98Z" fill="url(#paint5_linear_47_115)"/>
<path d="M61.5474 128.536C60.4533 129.572 59.3691 131.601 59.0309 133.233C58.7921 134.394 58.8021 136.047 59.0408 137.156C59.2298 138.055 59.8863 139.625 60.3836 140.378C60.871 141.131 61.6568 141.978 62.3133 142.47C63.298 143.213 64.8 143.934 65.6654 144.091C66.9087 144.311 68.1421 144.311 69.3457 144.091C70.3304 143.903 72.1208 142.993 72.8867 142.271L73.3741 141.811L72.4789 142.135C71.4842 142.501 71.3151 142.533 70.1911 142.543C69.2959 142.554 68.6196 142.376 68.0426 141.978L67.6647 141.706L67.2469 141.936C65.9339 142.658 63.9744 141.936 63.0394 140.399C62.363 139.3 62.2138 138.233 62.5918 137.302C62.7808 136.852 62.7907 136.737 62.6913 136.34C62.6018 136.026 62.6018 135.765 62.6714 135.43C62.7211 135.168 62.7907 134.603 62.8305 134.164C62.9101 133.244 62.8405 133.034 62.1939 132.292C61.7364 131.758 61.6966 131.528 61.995 130.921C62.184 130.524 62.184 130.471 62.0447 129.938C61.8557 129.289 61.8458 128.861 61.9851 128.463C62.0447 128.306 62.0746 128.16 62.0547 128.139C62.0248 128.118 61.806 128.296 61.5474 128.536Z" fill="url(#paint6_linear_47_115)"/>
<path d="M64.1435 136.936C63.6661 137.124 63.4771 137.292 63.308 137.7C62.8902 138.767 63.6462 140.367 64.9194 141.058C65.5559 141.403 66.3517 141.455 66.859 141.183C67.6348 140.765 67.7542 139.625 67.1574 138.516C66.5108 137.323 65.1083 136.58 64.1435 136.936Z" fill="url(#paint7_linear_47_115)"/>
<path d="M69.9226 140.712C69.4352 140.995 69.4451 141.591 69.9425 141.863C70.4995 142.166 71.2853 141.989 71.3947 141.528C71.4842 141.183 71.3848 141.005 71.0167 140.765C70.6288 140.524 70.2906 140.503 69.9226 140.712Z" fill="url(#paint8_linear_47_115)"/>
<defs>
<linearGradient id="paint0_linear_47_115" x1="60.9321" y1="150.12" x2="60.9321" y2="144.167" gradientUnits="userSpaceOnUse">
<stop stop-color="#ADEBDC"/>
<stop offset="1" stop-color="#57A79E"/>
</linearGradient>
<linearGradient id="paint1_linear_47_115" x1="77.1966" y1="150.845" x2="77.1966" y2="144.201" gradientUnits="userSpaceOnUse">
<stop stop-color="#ADEBDC"/>
<stop offset="1" stop-color="#57A79E"/>
</linearGradient>
<linearGradient id="paint2_linear_47_115" x1="57.8039" y1="152.784" x2="57.8039" y2="145.956" gradientUnits="userSpaceOnUse">
<stop stop-color="#ADEBDC"/>
<stop offset="1" stop-color="#57A79E"/>
</linearGradient>
<linearGradient id="paint3_linear_47_115" x1="77.3199" y1="153.075" x2="77.3199" y2="147.927" gradientUnits="userSpaceOnUse">
<stop stop-color="#ADEBDC"/>
<stop offset="1" stop-color="#57A79E"/>
</linearGradient>
<linearGradient id="paint4_linear_47_115" x1="67.684" y1="158.09" x2="67.684" y2="150.011" gradientUnits="userSpaceOnUse">
<stop stop-color="#ADEBDC"/>
<stop offset="1" stop-color="#57A79E"/>
</linearGradient>
<linearGradient id="paint5_linear_47_115" x1="67.5" y1="147.167" x2="67.5" y2="123.125" gradientUnits="userSpaceOnUse">
<stop stop-color="#ADEBDC"/>
<stop offset="1" stop-color="#57A79E"/>
</linearGradient>
<linearGradient id="paint6_linear_47_115" x1="66.1154" y1="144.256" x2="66.1154" y2="128.137" gradientUnits="userSpaceOnUse">
<stop stop-color="#ADEBDC"/>
<stop offset="1" stop-color="#57A79E"/>
</linearGradient>
<linearGradient id="paint7_linear_47_115" x1="65.3636" y1="141.357" x2="65.3636" y2="136.847" gradientUnits="userSpaceOnUse">
<stop stop-color="#ADEBDC"/>
<stop offset="1" stop-color="#57A79E"/>
</linearGradient>
<linearGradient id="paint8_linear_47_115" x1="70.4943" y1="142.013" x2="70.4943" y2="140.569" gradientUnits="userSpaceOnUse">
<stop stop-color="#ADEBDC"/>
<stop offset="1" stop-color="#57A79E"/>
</linearGradient>
<clipPath id="clip0_47_115">
<rect width="39.913" height="31.7893" fill="white" transform="translate(48.0435 135.211)"/>
</clipPath>
</defs>
</svg>