<svg width="38" height="34" viewBox="0 0 38 34" fill="none" xmlns="http://www.w3.org/2000/svg">
<g filter="url(#filter0_i_36_17)">
<path d="M23.75 28.2094C23.75 25.8622 21.6234 23.9594 19 23.9594C16.3766 23.9594 14.25 25.8622 14.25 28.2094C14.25 30.5566 16.3766 32.4594 19 32.4594C21.6234 32.4594 23.75 30.5566 23.75 28.2094Z" fill="#57A79E"/>
<path d="M23.75 17C23.75 14.6528 21.6234 12.75 19 12.75C16.3766 12.75 14.25 14.6528 14.25 17C14.25 19.3472 16.3766 21.25 19 21.25C21.6234 21.25 23.75 19.3472 23.75 17Z" fill="#57A79E"/>
<path d="M23.75 5.79063C23.75 3.44342 21.6234 1.54063 19 1.54063C16.3766 1.54063 14.25 3.44342 14.25 5.79063C14.25 8.13784 16.3766 10.0406 19 10.0406C21.6234 10.0406 23.75 8.13784 23.75 5.79063Z" fill="#57A79E"/>
</g>
<defs>
<filter id="filter0_i_36_17" x="0" y="0" width="38" height="38" filterUnits="userSpaceOnUse" color-interpolation-filters="sRGB">
<feFlood flood-opacity="0" result="BackgroundImageFix"/>
<feBlend mode="normal" in="SourceGraphic" in2="BackgroundImageFix" result="shape"/>
<feColorMatrix in="SourceAlpha" type="matrix" values="0 0 0 0 0 0 0 0 0 0 0 0 0 0 0 0 0 0 127 0" result="hardAlpha"/>
<feOffset dy="4"/>
<feGaussianBlur stdDeviation="2"/>
<feComposite in2="hardAlpha" operator="arithmetic" k2="-1" k3="1"/>
<feColorMatrix type="matrix" values="0 0 0 0 0 0 0 0 0 0 0 0 0 0 0 0 0 0 0.4 0"/>
<feBlend mode="normal" in2="shape" result="effect1_innerShadow_36_17"/>
</filter>
</defs>
</svg>
