<svg width="85" height="42" viewBox="0 0 85 42" fill="none" xmlns="http://www.w3.org/2000/svg">
<path d="M63.9297 0C64.4172 0 64.9047 0.162498 65.2297 0.568748L83.5922 19.2563C84.3234 19.9875 84.3234 21.125 83.5922 21.8563L65.2297 40.5438C64.4984 41.275 63.3609 41.275 62.6297 40.5438C61.8984 39.8125 61.8984 38.675 62.6297 37.9438L79.6922 20.5563L62.5484 3.16875C61.8172 2.4375 61.8172 1.3 62.5484 0.568748C63.0359 0.243748 63.4422 0 63.9297 0Z" fill="#442A35"/>
<path d="M6.684 23.9999C6.532 23.9999 6.408 23.9519 6.312 23.8559C6.216 23.7599 6.168 23.6399 6.168 23.4959V20.4359C6.168 19.9479 6.076 19.5519 5.892 19.2479C5.716 18.9359 5.472 18.7039 5.16 18.5519C4.848 18.3919 4.492 18.3119 4.092 18.3119C3.716 18.3119 3.376 18.3879 3.072 18.5399C2.776 18.6839 2.54 18.8839 2.364 19.1399C2.188 19.3879 2.1 19.6759 2.1 20.0039H1.404C1.42 19.4999 1.552 19.0519 1.8 18.6599C2.056 18.2599 2.396 17.9439 2.82 17.7119C3.244 17.4799 3.716 17.3639 4.236 17.3639C4.796 17.3639 5.296 17.4839 5.736 17.7239C6.184 17.9559 6.536 18.2999 6.792 18.7559C7.056 19.2119 7.188 19.7719 7.188 20.4359V23.4959C7.188 23.6399 7.14 23.7599 7.044 23.8559C6.948 23.9519 6.828 23.9999 6.684 23.9999ZM1.596 23.9999C1.436 23.9999 1.308 23.9559 1.212 23.8679C1.124 23.7719 1.08 23.6479 1.08 23.4959V17.9519C1.08 17.7919 1.124 17.6679 1.212 17.5799C1.308 17.4839 1.436 17.4359 1.596 17.4359C1.748 17.4359 1.868 17.4839 1.956 17.5799C2.052 17.6679 2.1 17.7919 2.1 17.9519V23.4959C2.1 23.6479 2.052 23.7719 1.956 23.8679C1.868 23.9559 1.748 23.9999 1.596 23.9999ZM12.2365 24.0599C11.5805 24.0599 11.0005 23.9199 10.4965 23.6399C9.99253 23.3519 9.59653 22.9559 9.30853 22.4519C9.02053 21.9479 8.87653 21.3719 8.87653 20.7239C8.87653 20.0679 9.01253 19.4919 9.28453 18.9959C9.55653 18.4919 9.92853 18.0959 10.4005 17.8079C10.8805 17.5199 11.4325 17.3759 12.0565 17.3759C12.6645 17.3759 13.1925 17.5159 13.6405 17.7959C14.0965 18.0679 14.4445 18.4479 14.6845 18.9359C14.9325 19.4239 15.0565 19.9799 15.0565 20.6039C15.0565 20.7399 15.0125 20.8519 14.9245 20.9399C14.8365 21.0199 14.7245 21.0599 14.5885 21.0599H9.57253V20.2319H14.6485L14.1325 20.5919C14.1405 20.1519 14.0605 19.7559 13.8925 19.4039C13.7245 19.0519 13.4845 18.7759 13.1725 18.5759C12.8605 18.3759 12.4885 18.2759 12.0565 18.2759C11.6005 18.2759 11.2005 18.3799 10.8565 18.5879C10.5205 18.7959 10.2605 19.0879 10.0765 19.4639C9.90053 19.8319 9.81253 20.2519 9.81253 20.7239C9.81253 21.1959 9.91653 21.6159 10.1245 21.9839C10.3325 22.3519 10.6165 22.6399 10.9765 22.8479C11.3445 23.0559 11.7645 23.1599 12.2365 23.1599C12.5085 23.1599 12.7845 23.1119 13.0645 23.0159C13.3525 22.9199 13.5805 22.7999 13.7485 22.6559C13.8445 22.5839 13.9525 22.5479 14.0725 22.5479C14.2005 22.5399 14.3045 22.5719 14.3845 22.6439C14.5045 22.7479 14.5645 22.8599 14.5645 22.9799C14.5725 23.0999 14.5205 23.2039 14.4085 23.2919C14.1445 23.5159 13.8085 23.6999 13.4005 23.8439C12.9925 23.9879 12.6045 24.0599 12.2365 24.0599ZM20.8518 23.9999C20.7558 23.9999 20.6758 23.9879 20.6118 23.9639C20.5478 23.9319 20.4838 23.8759 20.4198 23.7959L18.3438 21.1919L17.9598 20.8439L15.8718 18.2399C15.7758 18.1279 15.7278 18.0119 15.7278 17.8919C15.7278 17.7719 15.7678 17.6679 15.8478 17.5799C15.9278 17.4839 16.0398 17.4359 16.1838 17.4359C16.3358 17.4359 16.4638 17.4919 16.5678 17.6039L18.5958 20.1359L18.9078 20.4119L21.1518 23.2199C21.2638 23.3479 21.3118 23.4759 21.2958 23.6039C21.2878 23.7239 21.2358 23.8199 21.1398 23.8919C21.0518 23.9639 20.9558 23.9999 20.8518 23.9999ZM16.1478 23.9999C16.0118 23.9999 15.8998 23.9559 15.8118 23.8679C15.7318 23.7799 15.6918 23.6759 15.6918 23.5559C15.6918 23.4359 15.7398 23.3159 15.8358 23.1959L17.9838 20.5079L18.5478 21.2639L16.5078 23.8439C16.4198 23.9479 16.2998 23.9999 16.1478 23.9999ZM19.0038 20.8919L18.3438 20.2559L20.3718 17.6519C20.4278 17.5719 20.4918 17.5159 20.5638 17.4839C20.6358 17.4519 20.7078 17.4359 20.7798 17.4359C20.9318 17.4359 21.0438 17.4839 21.1158 17.5799C21.1958 17.6679 21.2318 17.7759 21.2238 17.9039C21.2238 18.0319 21.1798 18.1519 21.0918 18.2639L19.0038 20.8919ZM25.3732 23.9999C24.9572 23.9999 24.5852 23.8999 24.2572 23.6999C23.9292 23.4999 23.6692 23.2239 23.4772 22.8719C23.2932 22.5199 23.2012 22.1239 23.2012 21.6839V15.8519C23.2012 15.7079 23.2452 15.5879 23.3332 15.4919C23.4292 15.3959 23.5532 15.3479 23.7052 15.3479C23.8492 15.3479 23.9692 15.3959 24.0652 15.4919C24.1612 15.5879 24.2092 15.7079 24.2092 15.8519V21.6839C24.2092 22.0599 24.3172 22.3719 24.5332 22.6199C24.7572 22.8679 25.0372 22.9919 25.3732 22.9919H25.7332C25.8612 22.9919 25.9692 23.0399 26.0572 23.1359C26.1452 23.2319 26.1892 23.3519 26.1892 23.4959C26.1892 23.6479 26.1332 23.7719 26.0212 23.8679C25.9172 23.9559 25.7812 23.9999 25.6132 23.9999H25.3732ZM22.4932 18.5519C22.3572 18.5519 22.2452 18.5119 22.1572 18.4319C22.0692 18.3439 22.0252 18.2399 22.0252 18.1199C22.0252 17.9919 22.0692 17.8879 22.1572 17.8079C22.2452 17.7199 22.3572 17.6759 22.4932 17.6759H25.4572C25.5932 17.6759 25.7052 17.7199 25.7932 17.8079C25.8812 17.8879 25.9252 17.9919 25.9252 18.1199C25.9252 18.2399 25.8812 18.3439 25.7932 18.4319C25.7052 18.5119 25.5932 18.5519 25.4572 18.5519H22.4932ZM31.7249 26.8079C31.5649 26.8079 31.4369 26.7599 31.3409 26.6639C31.2529 26.5759 31.2089 26.4519 31.2089 26.2919V20.6879C31.2169 20.0639 31.3649 19.5039 31.6529 19.0079C31.9489 18.5039 32.3449 18.1079 32.8409 17.8199C33.3369 17.5239 33.8969 17.3759 34.5209 17.3759C35.1609 17.3759 35.7289 17.5239 36.2249 17.8199C36.7289 18.1079 37.1249 18.5039 37.4129 19.0079C37.7089 19.5119 37.8569 20.0839 37.8569 20.7239C37.8569 21.3559 37.7169 21.9239 37.4369 22.4279C37.1649 22.9319 36.7889 23.3319 36.3089 23.6279C35.8289 23.9159 35.2849 24.0599 34.6769 24.0599C34.1569 24.0599 33.6849 23.9519 33.2609 23.7359C32.8369 23.5119 32.4929 23.2199 32.2289 22.8599V26.2919C32.2289 26.4519 32.1809 26.5759 32.0849 26.6639C31.9889 26.7599 31.8689 26.8079 31.7249 26.8079ZM34.5209 23.1479C34.9689 23.1479 35.3689 23.0439 35.7209 22.8359C36.0809 22.6199 36.3609 22.3279 36.5609 21.9599C36.7689 21.5919 36.8729 21.1799 36.8729 20.7239C36.8729 20.2599 36.7689 19.8479 36.5609 19.4879C36.3609 19.1199 36.0809 18.8279 35.7209 18.6119C35.3689 18.3959 34.9689 18.2879 34.5209 18.2879C34.0889 18.2879 33.6929 18.3959 33.3329 18.6119C32.9809 18.8279 32.7049 19.1199 32.5049 19.4879C32.3049 19.8479 32.2049 20.2599 32.2049 20.7239C32.2049 21.1799 32.3049 21.5919 32.5049 21.9599C32.7049 22.3279 32.9809 22.6199 33.3329 22.8359C33.6849 23.0439 34.0809 23.1479 34.5209 23.1479ZM42.5256 24.0599C41.9176 24.0599 41.3736 23.9159 40.8936 23.6279C40.4136 23.3319 40.0336 22.9319 39.7536 22.4279C39.4736 21.9239 39.3336 21.3559 39.3336 20.7239C39.3336 20.0839 39.4776 19.5119 39.7656 19.0079C40.0616 18.5039 40.4616 18.1079 40.9656 17.8199C41.4696 17.5239 42.0376 17.3759 42.6696 17.3759C43.2936 17.3759 43.8536 17.5239 44.3496 17.8199C44.8536 18.1079 45.2496 18.5039 45.5376 19.0079C45.8336 19.5119 45.9856 20.0839 45.9936 20.7239L45.5856 20.9279C45.5856 21.5199 45.4496 22.0519 45.1776 22.5239C44.9136 22.9959 44.5496 23.3719 44.0856 23.6519C43.6296 23.9239 43.1096 24.0599 42.5256 24.0599ZM42.6696 23.1479C43.1176 23.1479 43.5136 23.0439 43.8576 22.8359C44.2096 22.6199 44.4856 22.3279 44.6856 21.9599C44.8936 21.5919 44.9976 21.1799 44.9976 20.7239C44.9976 20.2599 44.8936 19.8479 44.6856 19.4879C44.4856 19.1199 44.2096 18.8279 43.8576 18.6119C43.5136 18.3959 43.1176 18.2879 42.6696 18.2879C42.2296 18.2879 41.8296 18.3959 41.4696 18.6119C41.1176 18.8279 40.8376 19.1199 40.6296 19.4879C40.4216 19.8479 40.3176 20.2599 40.3176 20.7239C40.3176 21.1799 40.4216 21.5919 40.6296 21.9599C40.8376 22.3279 41.1176 22.6199 41.4696 22.8359C41.8296 23.0439 42.2296 23.1479 42.6696 23.1479ZM45.4776 23.9999C45.3336 23.9999 45.2096 23.9559 45.1056 23.8679C45.0096 23.7719 44.9616 23.6479 44.9616 23.4959V21.5159L45.1896 20.4719L45.9936 20.7239V23.4959C45.9936 23.6479 45.9456 23.7719 45.8496 23.8679C45.7536 23.9559 45.6296 23.9999 45.4776 23.9999ZM50.6349 24.0599C50.0109 24.0599 49.4589 23.9199 48.9789 23.6399C48.4989 23.3519 48.1229 22.9559 47.8509 22.4519C47.5789 21.9479 47.4429 21.3719 47.4429 20.7239C47.4429 20.0679 47.5869 19.4879 47.8749 18.9839C48.1629 18.4799 48.5549 18.0879 49.0509 17.8079C49.5549 17.5199 50.1309 17.3759 50.7789 17.3759C51.4189 17.3759 51.9869 17.5199 52.4829 17.8079C52.9869 18.0879 53.3789 18.4799 53.6589 18.9839C53.9469 19.4879 54.0949 20.0679 54.1029 20.7239L53.5029 20.9279C53.5029 21.5359 53.3789 22.0759 53.1309 22.5479C52.8909 23.0199 52.5549 23.3919 52.1229 23.6639C51.6909 23.9279 51.1949 24.0599 50.6349 24.0599ZM50.7789 26.6279C50.1709 26.6279 49.6229 26.5119 49.1349 26.2799C48.6549 26.0479 48.2509 25.7239 47.9229 25.3079C47.8349 25.2039 47.7989 25.0879 47.8149 24.9599C47.8309 24.8399 47.8949 24.7439 48.0069 24.6719C48.1269 24.5919 48.2549 24.5639 48.3909 24.5879C48.5269 24.6119 48.6349 24.6799 48.7149 24.7919C48.9389 25.0719 49.2269 25.2959 49.5789 25.4639C49.9309 25.6319 50.3389 25.7159 50.8029 25.7159C51.2269 25.7159 51.6149 25.6119 51.9669 25.4039C52.3189 25.2039 52.5949 24.9119 52.7949 24.5279C53.0029 24.1439 53.1069 23.6879 53.1069 23.1599V21.3839L53.4669 20.5679L54.1029 20.7239V23.2199C54.1029 23.8599 53.9589 24.4359 53.6709 24.9479C53.3829 25.4679 52.9909 25.8759 52.4949 26.1719C51.9989 26.4759 51.4269 26.6279 50.7789 26.6279ZM50.7789 23.1479C51.2349 23.1479 51.6349 23.0439 51.9789 22.8359C52.3309 22.6279 52.6069 22.3439 52.8069 21.9839C53.0069 21.6159 53.1069 21.1959 53.1069 20.7239C53.1069 20.2519 53.0069 19.8319 52.8069 19.4639C52.6069 19.0959 52.3309 18.8079 51.9789 18.5999C51.6349 18.3919 51.2349 18.2879 50.7789 18.2879C50.3229 18.2879 49.9189 18.3919 49.5669 18.5999C49.2149 18.8079 48.9349 19.0959 48.7269 19.4639C48.5269 19.8319 48.4269 20.2519 48.4269 20.7239C48.4269 21.1959 48.5269 21.6159 48.7269 21.9839C48.9349 22.3439 49.2149 22.6279 49.5669 22.8359C49.9189 23.0439 50.3229 23.1479 50.7789 23.1479ZM58.9123 24.0599C58.2563 24.0599 57.6763 23.9199 57.1723 23.6399C56.6683 23.3519 56.2723 22.9559 55.9843 22.4519C55.6963 21.9479 55.5523 21.3719 55.5523 20.7239C55.5523 20.0679 55.6883 19.4919 55.9603 18.9959C56.2323 18.4919 56.6043 18.0959 57.0763 17.8079C57.5563 17.5199 58.1083 17.3759 58.7323 17.3759C59.3403 17.3759 59.8683 17.5159 60.3163 17.7959C60.7723 18.0679 61.1203 18.4479 61.3603 18.9359C61.6083 19.4239 61.7323 19.9799 61.7323 20.6039C61.7323 20.7399 61.6883 20.8519 61.6003 20.9399C61.5123 21.0199 61.4003 21.0599 61.2643 21.0599H56.2483V20.2319H61.3243L60.8083 20.5919C60.8163 20.1519 60.7363 19.7559 60.5683 19.4039C60.4003 19.0519 60.1603 18.7759 59.8483 18.5759C59.5363 18.3759 59.1643 18.2759 58.7323 18.2759C58.2763 18.2759 57.8763 18.3799 57.5323 18.5879C57.1963 18.7959 56.9363 19.0879 56.7523 19.4639C56.5763 19.8319 56.4883 20.2519 56.4883 20.7239C56.4883 21.1959 56.5923 21.6159 56.8003 21.9839C57.0083 22.3519 57.2923 22.6399 57.6523 22.8479C58.0203 23.0559 58.4403 23.1599 58.9123 23.1599C59.1843 23.1599 59.4603 23.1119 59.7403 23.0159C60.0283 22.9199 60.2563 22.7999 60.4243 22.6559C60.5203 22.5839 60.6283 22.5479 60.7483 22.5479C60.8763 22.5399 60.9803 22.5719 61.0603 22.6439C61.1803 22.7479 61.2403 22.8599 61.2403 22.9799C61.2483 23.0999 61.1963 23.2039 61.0843 23.2919C60.8203 23.5159 60.4843 23.6999 60.0763 23.8439C59.6683 23.9879 59.2803 24.0599 58.9123 24.0599Z" fill="#442A35"/>
</svg>
