<svg width="16" height="18" viewBox="0 0 16 18" fill="none" xmlns="http://www.w3.org/2000/svg">
<path d="M1.86673 17.716L5.50157 12.8176C8.02426 14.8363 11.632 14.6285 13.9105 12.1051C15.1312 10.7691 15.8093 8.98789 15.8093 7.08789C15.8093 5.18789 15.1312 3.40664 13.9105 2.0707C11.3878 -0.690234 7.26474 -0.690234 4.74205 2.0707C3.5214 3.40664 2.84326 5.18789 2.84326 7.08789C2.84326 8.89883 3.46715 10.591 4.5793 11.927L0.917335 16.8848C0.835958 17.0035 0.781707 17.152 0.781707 17.3004C0.781707 17.5082 0.863084 17.6863 0.998712 17.8051C1.26997 18.0426 1.64973 18.0129 1.86673 17.716ZM4.06391 7.08789C4.06391 5.54414 4.60643 4.11914 5.61008 3.0207C7.67163 0.764453 11.0081 0.764453 13.0425 3.0207C14.0462 4.11914 14.5887 5.54414 14.5887 7.08789C14.5887 8.63164 14.0462 10.0566 13.0425 11.1551C10.981 13.4113 7.6445 13.4113 5.61008 11.1551C4.60643 10.0863 4.06391 8.63164 4.06391 7.08789Z" fill="#442A35"/>
</svg>
