<svg width="52" height="52" viewBox="0 0 52 52" fill="none" xmlns="http://www.w3.org/2000/svg">
<g clip-path="url(#clip0_47_422)" filter="url(#filter0_i_47_422)">
<path d="M25.9187 0.731689C12.7562 0.731689 1.70625 10.9692 0.8125 23.9692L14.3 29.5754C15.4375 28.7629 16.8188 28.4379 18.2812 28.4379C18.3625 28.4379 18.6062 28.4379 18.6062 28.4379L24.5375 19.5817C24.5375 19.5004 24.5375 19.5004 24.5375 19.5004C24.5375 14.2192 28.7625 9.9942 34.0438 9.9942C39.325 9.9942 43.6313 14.2192 43.6313 19.5004C43.6313 24.7817 39.4062 29.0067 34.125 29.0067C34.0438 29.0067 34.0438 29.0067 33.8813 29.0067L25.2688 35.1817C25.2688 35.2629 25.2688 35.4254 25.2688 35.5067C25.2688 39.4067 22.1 42.7379 18.0375 42.7379C14.625 42.7379 11.6188 40.2192 11.05 37.0504L1.625 32.9067C4.63125 43.4692 14.4625 51.3504 25.9187 51.3504C39.8125 51.2692 51.1875 39.9754 51.1875 26.0004C51.1875 12.0254 39.8125 0.731689 25.9187 0.731689Z" fill="#ADEBDC"/>
<path d="M16.5763 39.0812L13.4888 37.8625C14.0576 39 14.9513 40.0562 16.2513 40.4625C18.8513 41.6 22.1013 40.3812 23.2388 37.6187C23.8076 36.2375 23.8076 34.8562 23.2388 33.475C22.67 32.0937 21.6138 31.0375 20.3951 30.4687C19.095 29.9 17.795 29.9813 16.495 30.3875L19.6638 31.7687C21.6138 32.6625 22.67 34.9375 21.8575 36.8875C20.9638 38.9187 18.6888 39.8125 16.5763 39.0812Z" fill="#ADEBDC"/>
<path d="M40.6244 19.5005C40.6244 16.088 37.7806 13.0818 34.2056 13.0818C30.7931 13.0818 27.7869 15.9255 27.7869 19.5005C27.7869 23.0755 30.7931 25.9193 34.2056 25.9193C37.6181 25.9193 40.6244 22.9943 40.6244 19.5005ZM29.5744 19.5005C29.5744 16.9005 31.7681 14.788 34.2869 14.788C36.8869 14.788 38.9994 16.9818 38.9994 19.5005C38.9994 22.1005 36.8056 24.213 34.2869 24.213C31.6869 24.2943 29.5744 22.1005 29.5744 19.5005Z" fill="#ADEBDC"/>
</g>
<defs>
<filter id="filter0_i_47_422" x="0" y="0" width="52" height="56" filterUnits="userSpaceOnUse" color-interpolation-filters="sRGB">
<feFlood flood-opacity="0" result="BackgroundImageFix"/>
<feBlend mode="normal" in="SourceGraphic" in2="BackgroundImageFix" result="shape"/>
<feColorMatrix in="SourceAlpha" type="matrix" values="0 0 0 0 0 0 0 0 0 0 0 0 0 0 0 0 0 0 127 0" result="hardAlpha"/>
<feOffset dy="4"/>
<feGaussianBlur stdDeviation="2"/>
<feComposite in2="hardAlpha" operator="arithmetic" k2="-1" k3="1"/>
<feColorMatrix type="matrix" values="0 0 0 0 0.00784314 0 0 0 0 0.109804 0 0 0 0 0.207843 0 0 0 0.5 0"/>
<feBlend mode="normal" in2="shape" result="effect1_innerShadow_47_422"/>
</filter>
<clipPath id="clip0_47_422">
<rect width="52" height="52" fill="white"/>
</clipPath>
</defs>
</svg>
