<svg width="31" height="52" viewBox="0 0 31 52" fill="none" xmlns="http://www.w3.org/2000/svg">
<path d="M30.7069 48.0187C29.3256 49.4 25.8319 51.1875 21.1194 51.1875C9.25688 51.1875 6.57563 42.4938 6.57563 37.375V23.1562H1.86313C1.29438 23.1562 0.806885 22.6688 0.806885 22.1V15.4375C0.806885 14.7875 1.29438 14.0562 1.94438 13.8125C8.20063 11.7 10.0694 6.41875 10.3131 2.4375C10.3944 1.3 10.8819 0.8125 11.9381 0.8125H18.9256C19.4944 0.8125 19.982 1.3 19.982 1.86875V13.1625H28.1881C28.7569 13.1625 29.2444 13.4875 29.2444 14.0562V22.0188C29.2444 22.5875 28.7569 23.075 28.1881 23.075H19.9006V36.075C19.9006 39.4875 22.3381 41.3563 26.5631 39.65C27.0506 39.5687 27.4569 39.325 27.7819 39.4062C28.1069 39.4875 28.3506 39.7313 28.4319 40.2188L30.6256 46.475C30.8694 46.9625 31.1131 47.6125 30.7069 48.0187Z" fill="#ADEBDC"/>
</svg>
