<svg width="62" height="61" viewBox="0 0 62 61" fill="none" xmlns="http://www.w3.org/2000/svg">
<g filter="url(#filter0_d_91_378)">
<ellipse cx="31" cy="26.5" rx="27" ry="26.5" fill="url(#paint0_linear_91_378)"/>
</g>
<path d="M56.1072 29.8783C55.702 30.3223 55.3705 30.8032 55.3705 30.9881C55.3705 31.1361 55.1127 31.2841 54.818 31.2841C54.2287 31.2841 52.5344 32.2458 51.8714 32.9117C51.6504 33.1337 51.1716 33.5036 50.7664 33.7625C50.3613 33.9845 50.0666 34.3544 50.1403 34.6134C50.1771 34.8353 50.0666 34.9463 49.8456 34.7983C49.6614 34.6873 49.4773 34.7613 49.4773 34.9463C49.4773 35.1682 49.2563 35.3532 48.9984 35.3532C48.7406 35.3532 47.3041 36.537 45.8308 37.9796C43.8787 39.9032 43.0684 40.4951 42.7369 40.1992C42.4054 39.9402 42.1475 40.0512 41.7792 40.5691C41.3741 41.272 41.4109 41.309 42.0739 41.087C42.6264 40.902 42.8474 41.013 42.8474 41.4569C42.8474 41.7529 42.5895 42.1228 42.2949 42.2338C42.0002 42.3817 41.7424 42.6407 41.7424 42.8996C41.7424 43.1216 41.0794 44.0464 40.2691 44.9342C39.4587 45.822 38.7958 46.6728 38.7958 46.8578C38.7958 47.0427 38.5379 47.1907 38.2433 47.1907C37.9486 47.1907 37.6908 47.3387 37.6908 47.5236C37.6908 47.7086 37.3224 48.0045 36.8804 48.1525C35.7755 48.4854 34.0075 49.8172 34.0075 50.2981C34.0075 50.52 33.4918 51.1859 32.9025 51.7778C32.2763 52.3696 31.8343 52.8875 31.908 52.9615C31.9817 53.0355 32.8288 52.9985 33.7497 52.8875C34.8546 52.7396 35.4808 52.4436 35.4808 52.1477C35.4808 51.8517 35.7386 51.6298 36.0333 51.6298C36.328 51.6298 36.5858 51.8147 36.5858 52.0367C36.5858 52.5916 38.8326 52.1477 39.3482 51.5188C39.5692 51.2969 40.6374 50.3721 41.7424 49.5582C42.8474 48.7074 44.247 47.5976 44.7995 47.0427C45.352 46.5249 45.9782 46.081 46.1255 46.081C46.3097 46.081 46.5306 45.748 46.6411 45.3411C46.7516 44.9342 47.0831 44.6013 47.4146 44.6013C47.7461 44.6013 48.004 44.3053 48.004 43.8984C48.004 42.9366 48.9984 42.1228 49.5509 42.6777C49.8456 42.9736 49.5878 43.3805 48.7038 44.2313C48.004 44.8602 47.4515 45.5631 47.4515 45.822C47.4515 46.044 47.2673 46.2659 47.0831 46.2659C46.8621 46.2659 46.3097 46.6358 45.794 47.0797L44.91 47.9306H45.8308C47.8198 47.9306 52.2029 43.4915 54.3392 39.2744L55.1127 37.7577L53.4921 39.2004C52.6081 40.0142 51.6504 40.939 51.3926 41.235C50.9874 41.7529 50.9506 41.6789 51.1348 40.902C51.2821 40.3841 51.9082 39.4963 52.4976 38.9045L53.6026 37.8317L52.7922 37.2028C52.2029 36.7589 52.0187 36.352 52.2029 35.7971C52.4239 35.1682 52.3502 35.0203 51.9082 35.2052C51.5767 35.3162 51.4294 35.5752 51.5399 35.7601C51.6504 35.9451 51.5399 36.093 51.3558 36.093C50.8769 36.093 50.8401 35.7231 51.2453 35.0943C51.5767 34.5394 52.9396 34.3914 54.2655 34.7613C55.2969 35.0203 56.2545 34.4284 56.6228 33.2816C56.9175 32.2828 57.249 29.0645 57.028 29.0645C56.9543 29.0645 56.5492 29.4344 56.1072 29.8783ZM51.9082 37.6097C52.2766 38.2386 51.4294 38.9414 50.9138 38.4236C50.4718 37.9796 50.7664 37.2028 51.3189 37.2028C51.5031 37.2028 51.7609 37.3878 51.9082 37.6097ZM44.3207 41.05C44.3207 41.161 44.1733 41.3459 43.9524 41.4569C43.7682 41.5679 43.584 41.4939 43.584 41.309C43.584 41.087 43.7682 40.902 43.9524 40.902C44.1733 40.902 44.3207 40.976 44.3207 41.05ZM50.0298 41.6419C50.1403 41.8268 50.0666 42.0118 49.8824 42.0118C49.6614 42.0118 49.4773 41.8268 49.4773 41.6419C49.4773 41.4199 49.5509 41.272 49.6246 41.272C49.7351 41.272 49.9193 41.4199 50.0298 41.6419ZM45.794 44.9712C45.794 45.1561 45.5362 45.3411 45.2415 45.3411C44.9468 45.3411 44.689 45.5261 44.689 45.785C44.689 46.007 44.5785 46.081 44.468 45.97C44.1733 45.674 44.9837 44.6013 45.4625 44.6013C45.6467 44.6013 45.794 44.7492 45.794 44.9712ZM40.9321 47.8566C41.1531 48.5224 40.3796 48.3745 40.1217 47.7086C39.9744 47.3387 40.0849 47.1907 40.3427 47.2647C40.5637 47.3387 40.8584 47.6346 40.9321 47.8566ZM38.7958 51.2599C38.7958 51.4448 38.6484 51.6298 38.4274 51.6298C38.2433 51.6298 38.0591 51.4448 38.0591 51.2599C38.0591 51.0379 38.2433 50.8899 38.4274 50.8899C38.6484 50.8899 38.7958 51.0379 38.7958 51.2599Z" fill="url(#paint1_linear_91_378)" style="mix-blend-mode:luminosity"/>
<path d="M29.4058 0.83609C29.4447 1.36876 29.0559 1.86339 28.1227 2.43411C27.1118 3.08093 26.8785 3.11898 27.3062 2.62435C27.6562 2.20582 27.695 1.97753 27.384 1.97753C26.9952 1.97753 26.8785 2.28192 26.9952 2.96678C27.0729 3.27117 23.8846 6.42916 22.6015 7.34231C20.9685 8.48375 21.2796 7.60865 23.2625 5.47795C25.5565 2.96678 25.5177 2.51021 23.1848 4.67895C21.2796 6.46721 19.9576 7.22817 19.9576 6.50525C19.9576 6.27697 19.7632 6.23892 19.5299 6.39111C19.2188 6.5433 19.2577 6.73354 19.6076 6.96183C20.0353 7.19012 19.9965 7.41841 19.4521 7.98913C19.1022 8.36961 18.7911 8.90228 18.7911 9.13057C18.7911 9.39691 18.5578 9.58715 18.3245 9.58715C18.0524 9.58715 16.9637 10.3862 15.9528 11.3374C14.5141 12.7071 14.2031 13.2017 14.553 13.6202C14.8641 14.0007 14.7474 14.191 13.8531 14.3812C12.8422 14.6095 11.9868 15.3705 8.83739 18.7948C8.1764 19.5177 7.28212 20.2026 6.81554 20.3167C5.72685 20.6211 5.72685 20.5069 7.04883 19.1753C12.5312 13.4681 16.847 8.5218 16.847 7.91303C16.847 7.79889 18.2468 6.27697 19.9576 4.52675C21.6295 2.81459 22.8737 1.33072 22.6404 1.29267C22.446 1.21657 20.7352 1.90144 18.8689 2.77654C16.186 4.10823 14.7863 5.09748 12.1423 7.68475C8.79851 10.9188 5.96014 15.0661 5.88238 16.8924C5.8435 17.387 5.57133 18.0719 5.26027 18.4143C4.94922 18.7948 4.79369 19.3275 4.91034 19.6318C5.02698 19.9362 4.9881 20.2406 4.83257 20.3167C4.28823 20.5069 3.93829 23.2845 4.44376 23.2845C4.75481 23.2845 4.75481 23.4366 4.48264 23.7791C3.97717 24.3878 3.86053 26.062 4.17158 29.5624C4.5604 34.3564 6.2712 38.6178 9.61503 42.9173C12.0646 46.1133 16.4971 49.5757 15.7972 47.7494C15.6028 47.2547 15.7583 47.1786 16.7693 47.3689C17.7802 47.5591 17.9746 47.483 18.0912 46.7601C18.169 46.2274 18.4801 45.9231 18.9855 45.9231C19.5299 45.9231 19.7632 45.6187 19.8409 44.8197C19.9187 43.488 20.2297 43.1836 20.813 43.7543C21.124 44.0587 21.3962 44.0207 21.8239 43.6021C22.2516 43.1836 22.2905 42.9173 21.9405 42.5748C21.6295 42.2704 21.5128 42.3085 21.5128 42.8412C21.5128 43.1836 21.3573 43.3738 21.124 43.2597C20.463 42.8792 20.6963 42.3085 21.5906 41.9661C22.0572 41.8139 22.6404 41.091 22.8737 40.368C23.2625 39.3027 23.5347 39.0744 24.4679 39.0744C25.09 39.0744 25.7898 38.9603 26.0231 38.8081C26.8396 38.2754 26.9174 39.569 26.1398 40.2539C25.0122 41.2431 25.5954 41.3573 26.9952 40.4061C28.0061 39.6451 28.1227 39.4929 27.5784 39.1885C26.6063 38.6559 26.8008 38.2373 28.9004 36.7154C29.9502 35.9545 31.1166 34.7369 31.4277 34.0521C31.7776 33.3672 32.2831 32.7965 32.5941 32.7965C32.9052 32.7965 33.1774 32.5301 33.1774 32.2258C33.1774 31.9214 33.4107 31.655 33.7217 31.655C34.4605 31.655 34.8104 30.5897 34.3438 29.7526C33.7995 28.7634 33.8384 28.6112 34.7326 28.6112C35.2381 28.6112 35.5103 28.8775 35.5103 29.3721C35.5103 29.7907 35.7047 30.1331 35.938 30.1331C36.1713 30.1331 36.249 29.7907 36.0935 29.3721C35.8991 28.8014 36.0157 28.6112 36.599 28.6112C36.9878 28.6112 37.8043 28.1927 38.3875 27.66C38.9319 27.1654 39.3984 26.9371 39.4373 27.2034C39.4373 27.4697 39.6317 27.2415 39.8261 26.7468C40.0594 26.1381 40.3705 25.9478 40.8371 26.1C41.2259 26.2522 41.3814 26.2522 41.2259 26.1C40.8759 25.7576 41.6925 24.7303 42.1202 24.9966C42.2757 25.1108 42.3923 24.8825 42.3535 24.502C42.3146 24.0454 42.5867 23.8932 43.2866 23.9693C43.9087 24.0074 44.0643 23.9313 43.7532 23.741C43.4033 23.5127 43.8698 22.7898 45.5029 21.1538C46.7471 19.8982 48.0302 18.6806 48.3801 18.4143C49.7799 17.349 48.0691 20.7352 46.5916 21.9528C45.775 22.5996 45.2307 23.3225 45.3473 23.5888C45.5029 23.8171 45.3085 24.0835 44.8808 24.2357C44.4531 24.3498 43.9865 24.8064 43.8698 25.2249C43.7143 25.6054 43.4421 25.9478 43.2477 25.9478C43.0144 25.9478 42.9756 26.4805 43.1311 27.2795C43.3255 28.3829 43.2477 28.6112 42.7034 28.6112C42.2368 28.6112 42.1202 28.4209 42.2757 28.0024C42.6256 27.1273 42.159 26.6327 41.5758 27.2034C41.187 27.5458 41.1481 27.7361 41.4981 27.9263C41.7702 28.1166 41.6925 28.2307 41.2648 28.2307C40.8759 28.2307 40.215 28.5731 39.7873 28.9917C38.8541 29.9048 38.232 29.9809 38.232 29.1439C38.232 28.6873 38.0376 28.7634 37.4932 29.4102C37.0267 29.9809 36.91 30.3994 37.1433 30.5516C37.3766 30.7038 36.9878 31.3887 36.1324 32.1877C35.3547 32.9487 34.7326 33.7477 34.7326 33.976C34.7326 34.6228 31.6999 37.3622 31 37.3622C30.6112 37.3622 30.4556 37.5525 30.6112 37.933C30.9611 38.8842 30.4168 39.6451 29.3281 39.6451C28.6282 39.6451 27.7339 40.1778 26.6063 41.2051C25.6732 42.0802 24.8178 42.6129 24.6623 42.4226C24.5456 42.2324 24.079 42.0802 23.6513 42.0802C22.7959 42.0802 22.5626 43.1836 23.1848 44.0968C23.6902 44.8577 23.1848 45.2382 21.9017 45.048C21.0074 44.9338 20.7352 45.048 20.7352 45.5045C20.7352 45.847 20.9296 46.1133 21.124 46.1133C21.3573 46.1133 21.5128 45.9231 21.5128 45.6567C21.5128 45.3143 21.6295 45.3143 21.9794 45.6567C22.3294 45.9992 22.3682 46.2274 22.0572 46.4177C21.8239 46.5699 21.5517 46.9884 21.3962 47.3689C21.2407 47.7113 20.5408 48.3962 19.7632 48.8147C19.0244 49.2713 18.4023 49.7279 18.4023 49.9181C18.4023 50.3366 21.8628 51.7444 24.6234 52.4293L26.9563 53L28.3171 51.7064C29.0559 50.9835 29.678 50.1464 29.678 49.842C29.678 49.2332 30.8833 48.0157 31.5054 48.0157C32.0109 48.0157 33.2162 46.684 32.983 46.3796C32.8663 46.2274 32.8663 46.1894 32.983 46.2274C33.2551 46.4177 38.1542 41.6617 38.9319 40.4822C39.4762 39.6451 40.3316 39.3788 40.6815 39.9115C40.7593 40.1017 40.7593 39.9876 40.7204 39.7212C40.526 38.9603 42.8589 36.6013 43.5588 36.8676C43.9865 37.0579 44.1031 36.9818 43.9087 36.6393C43.4421 35.9164 46.5527 33.1009 47.4081 33.4433C47.8358 33.5955 47.9913 33.5574 47.7969 33.253C47.6803 33.0248 47.8747 32.6823 48.2246 32.454C48.6134 32.2258 48.8078 32.0355 48.6523 32.0355C48.3412 32.0355 48.6912 31.5409 51.4129 28.459C53.5514 25.9859 54.1735 25.5293 54.9511 25.7576C55.3011 25.8717 55.9232 25.6054 56.312 25.1869C57.0119 24.4259 57.9062 24.1215 57.4785 24.8064C57.3618 24.9966 57.4396 25.4912 57.6729 25.8337C58.4116 27.0512 57.7895 20.9635 56.8952 18.3382C55.4566 14.1149 53.5125 11.1471 49.9354 7.68475C47.2526 5.09748 45.9306 4.10823 43.2866 2.85264C38.1153 0.417561 31.5054 -0.761929 30.1057 0.531708C29.678 0.912186 29.6002 0.912186 29.8335 0.531708C29.9891 0.303417 29.9113 0.0751305 29.7169 0.0751305C29.4836 0.0751305 29.3281 0.417561 29.4058 0.83609ZM29.9891 6.99988C29.9113 7.22817 29.6002 7.53255 29.367 7.60865C29.0948 7.68475 28.9781 7.53255 29.1337 7.15207C29.4058 6.46721 30.2224 6.31501 29.9891 6.99988ZM15.6806 8.5979C15.6806 8.674 15.4084 8.94033 15.0974 9.20667C14.5919 9.62519 14.553 9.58715 14.7474 9.05447C14.9418 8.5218 15.6806 8.17937 15.6806 8.5979ZM21.5128 11.9461C20.463 12.8973 20.152 12.669 20.9685 11.5656C21.2796 11.1091 21.7461 10.8047 21.9405 10.9569C22.1738 11.1091 22.0183 11.4896 21.5128 11.9461ZM19.3355 12.0603C19.1799 12.3647 18.9466 12.5168 18.7522 12.4027C18.3245 12.1744 18.6745 11.4896 19.1799 11.4896C19.3743 11.4896 19.4521 11.7559 19.3355 12.0603ZM19.0633 14.3051C19.2188 14.4193 19.0244 14.5334 18.6745 14.5334C18.3245 14.5334 18.0135 14.6856 18.0135 14.9139C18.0135 15.1041 17.5858 15.2944 17.0414 15.2944C16.4971 15.2944 16.0694 15.1041 16.0694 14.8758C16.0694 14.6856 16.2249 14.6095 16.4582 14.7236C16.6915 14.8378 16.7304 14.6856 16.6137 14.3812C16.4193 13.8866 16.6137 13.8105 17.5858 13.9246C18.2857 14.0007 18.9466 14.1529 19.0633 14.3051ZM9.07068 15.4466C9.07068 16.3217 8.09864 17.0826 7.7487 16.4739C7.59318 16.2456 8.64298 14.5714 8.99292 14.5334C9.0318 14.5334 9.07068 14.9519 9.07068 15.4466ZM15.0974 16.0553C15.214 16.2456 15.1362 16.4358 14.9418 16.4358C14.7085 16.4358 14.5141 16.2456 14.5141 16.0553C14.5141 15.827 14.5919 15.6748 14.6697 15.6748C14.7863 15.6748 14.9807 15.827 15.0974 16.0553ZM18.2079 16.0553C18.0912 16.2456 17.7802 16.4358 17.5858 16.4358C17.3525 16.4358 17.3136 16.2456 17.4303 16.0553C17.5469 15.827 17.858 15.6748 18.0524 15.6748C18.2857 15.6748 18.3245 15.827 18.2079 16.0553ZM44.8419 16.2836C44.8419 16.9304 43.9865 16.8163 43.7532 16.1314C43.6754 15.8651 43.8698 15.6748 44.2198 15.6748C44.5697 15.6748 44.8419 15.9412 44.8419 16.2836ZM5.96014 19.0992C5.96014 19.2894 5.80462 19.4796 5.57133 19.4796C5.37692 19.4796 5.18251 19.2894 5.18251 19.0992C5.18251 18.8709 5.37692 18.7187 5.57133 18.7187C5.80462 18.7187 5.96014 18.8709 5.96014 19.0992ZM11.0148 19.7079C11.0148 20.1645 10.8592 20.1645 10.2371 19.8601C9.80944 19.6318 9.53726 19.2894 9.65391 19.0992C9.96496 18.6045 11.0148 19.0992 11.0148 19.7079ZM6.38784 23.0181C5.88238 23.5127 5.37692 23.1323 5.76573 22.5615C5.88238 22.3333 6.19343 22.2572 6.42672 22.3713C6.66001 22.5235 6.66001 22.7518 6.38784 23.0181ZM10.2371 24.8064C10.2371 24.9966 10.0427 25.1869 9.80944 25.1869C9.61503 25.1869 9.53726 24.9966 9.65391 24.8064C9.77055 24.5781 9.96496 24.4259 10.0816 24.4259C10.1594 24.4259 10.2371 24.5781 10.2371 24.8064ZM13.1533 26.2903C13.0366 26.5185 12.7256 26.7088 12.4923 26.7088C12.259 26.7088 12.259 26.4805 12.57 26.1381C13.1144 25.4912 13.581 25.6434 13.1533 26.2903ZM7.00995 28.7634C6.38784 29.4482 5.80462 29.0678 6.38784 28.3829C6.62113 28.1166 6.97107 27.9644 7.16548 28.0785C7.35989 28.1927 7.28212 28.497 7.00995 28.7634ZM41.3425 29.5243C41.3425 29.6004 41.0315 29.9048 40.6815 30.1712C40.0594 30.6658 40.0205 30.6277 40.526 30.019C41.0315 29.4102 41.3425 29.22 41.3425 29.5243ZM28.7448 31.7311C29.6002 32.5301 29.9891 33.5574 29.4447 33.5574C28.9781 33.5574 26.9952 31.5028 27.1896 31.1985C27.5006 30.7419 27.7339 30.818 28.7448 31.7311ZM43.4033 35.3076C43.5977 35.5359 41.5369 37.7427 41.1092 37.7427C40.6815 37.7427 41.0704 36.7154 41.8091 35.9545C42.6645 35.0413 42.9756 34.9272 43.4033 35.3076ZM33.955 42.689C33.955 42.8792 33.7606 43.0695 33.5273 43.0695C33.3329 43.0695 33.2551 42.8792 33.3718 42.689C33.4884 42.4607 33.6828 42.3085 33.7995 42.3085C33.8772 42.3085 33.955 42.4607 33.955 42.689ZM24.6234 43.2216C24.6234 43.3358 24.4679 43.526 24.2346 43.6402C24.0402 43.7543 23.8457 43.6782 23.8457 43.488C23.8457 43.2597 24.0402 43.0695 24.2346 43.0695C24.4679 43.0695 24.6234 43.1455 24.6234 43.2216Z" fill="url(#paint2_linear_91_378)" style="mix-blend-mode:luminosity"/>
<path d="M39.3109 19.8351C37.4125 18.633 34.7125 17.9518 31.8437 17.9518C31.3375 17.9518 30.9156 17.9518 30.3672 17.9919C26.95 18.2724 24.6719 18.7933 23.5328 19.5146C23.5328 19.5146 23.4906 19.5146 23.4906 19.5546L23.2797 19.6748H19.525C18.3859 19.6748 17.5 20.5564 17.5 21.5982V30.7744C17.5 31.8162 18.4281 32.6978 19.525 32.6978H24.5453C24.5875 32.6978 24.6297 32.7379 24.6297 32.7379C25.5156 33.5793 27.7937 35.9836 30.1984 39.5498C30.7469 40.3913 31.6328 40.8722 32.6875 40.8722C32.7719 40.8722 32.8562 40.8722 32.9406 40.8722C34.0375 40.792 34.9656 40.231 35.4297 39.3495C36.0203 38.3077 35.5562 35.2623 35.3031 33.7797C37.5391 33.8198 41.2094 33.8999 42.3062 31.6159C43.8672 28.1297 42.8547 22.039 39.3109 19.8351ZM19.3984 30.8145V21.6383C19.3984 21.5582 19.4828 21.5181 19.525 21.5181H21.8031V30.9347H19.4828C19.4406 30.9347 19.3984 30.8545 19.3984 30.8145ZM40.5344 30.8545C39.9437 32.0967 36.9062 32.0166 35.2609 31.9765H34.0797C33.7844 31.9765 33.5312 32.0967 33.3203 32.2971C33.1516 32.4974 33.0672 32.7779 33.1516 33.0584L33.2781 33.6194C33.8687 36.5846 33.7844 38.2275 33.6578 38.508C33.4469 38.9087 33.025 39.0289 32.7297 39.069C32.3078 39.1091 32.0125 38.9488 31.7594 38.5882C29.2703 34.9017 26.8656 32.4173 25.9375 31.4957C25.5578 31.135 25.0516 30.8946 24.4609 30.8946H23.6172V21.478C23.7859 21.478 23.9547 21.3979 24.0812 21.3177L24.5031 21.0372C24.925 20.7968 26.3172 20.1557 30.4937 19.7951C30.9156 19.755 31.2953 19.755 31.7594 19.755C34.2484 19.755 36.6109 20.316 38.2141 21.3177C40.9562 23.0007 41.8 28.1297 40.5344 30.8545Z" fill="#ADEBDC"/>
<defs>
<filter id="filter0_d_91_378" x="0" y="0" width="62" height="61" filterUnits="userSpaceOnUse" color-interpolation-filters="sRGB">
<feFlood flood-opacity="0" result="BackgroundImageFix"/>
<feColorMatrix in="SourceAlpha" type="matrix" values="0 0 0 0 0 0 0 0 0 0 0 0 0 0 0 0 0 0 127 0" result="hardAlpha"/>
<feOffset dy="4"/>
<feGaussianBlur stdDeviation="2"/>
<feComposite in2="hardAlpha" operator="out"/>
<feColorMatrix type="matrix" values="0 0 0 0 0 0 0 0 0 0 0 0 0 0 0 0 0 0 0.3 0"/>
<feBlend mode="normal" in2="BackgroundImageFix" result="effect1_dropShadow_91_378"/>
<feBlend mode="normal" in="SourceGraphic" in2="effect1_dropShadow_91_378" result="shape"/>
</filter>
<linearGradient id="paint0_linear_91_378" x1="31" y1="0" x2="31" y2="53" gradientUnits="userSpaceOnUse">
<stop stop-color="#021C35"/>
<stop offset="1" stop-color="#072A34"/>
</linearGradient>
<linearGradient id="paint1_linear_91_378" x1="44.5" y1="53" x2="52.748" y2="30.8466" gradientUnits="userSpaceOnUse">
<stop stop-color="#442A35"/>
<stop offset="1" stop-color="#072A34"/>
</linearGradient>
<linearGradient id="paint2_linear_91_378" x1="31" y1="53" x2="49.7179" y2="4.34746" gradientUnits="userSpaceOnUse">
<stop stop-color="#442A35"/>
<stop offset="1" stop-color="#072A34"/>
</linearGradient>
</defs>
</svg>
