<svg xmlns="http://www.w3.org/2000/svg" fill="none" viewBox="54.04 123.13 191.92 43.88">
<path d="M101.982 152C101.55 152 101.202 151.88 100.938 151.64C100.698 151.376 100.578 151.028 100.578 150.596V133.712C100.578 133.28 100.698 132.944 100.938 132.704C101.202 132.44 101.55 132.308 101.982 132.308C102.39 132.308 102.714 132.44 102.954 132.704C103.218 132.944 103.35 133.28 103.35 133.712V150.596C103.35 151.028 103.218 151.376 102.954 151.64C102.714 151.88 102.39 152 101.982 152ZM101.946 128.564C101.418 128.564 100.962 128.372 100.578 127.988C100.194 127.604 100.002 127.136 100.002 126.584C100.002 125.984 100.194 125.516 100.578 125.18C100.986 124.82 101.454 124.64 101.982 124.64C102.486 124.64 102.93 124.82 103.314 125.18C103.722 125.516 103.926 125.984 103.926 126.584C103.926 127.136 103.734 127.604 103.35 127.988C102.966 128.372 102.498 128.564 101.946 128.564ZM112.856 152C112.496 152 112.184 151.88 111.92 151.64C111.656 151.376 111.524 151.028 111.524 150.596V132.344C111.524 130.664 111.812 129.188 112.388 127.916C112.964 126.644 113.816 125.66 114.944 124.964C116.072 124.244 117.452 123.884 119.084 123.884C119.492 123.884 119.828 124.004 120.092 124.244C120.356 124.484 120.488 124.784 120.488 125.144C120.488 125.504 120.356 125.804 120.092 126.044C119.828 126.284 119.492 126.404 119.084 126.404C118.004 126.404 117.104 126.656 116.384 127.16C115.688 127.64 115.16 128.324 114.8 129.212C114.464 130.076 114.296 131.072 114.296 132.2V150.596C114.296 151.028 114.164 151.376 113.9 151.64C113.66 151.88 113.312 152 112.856 152ZM109.22 135.44C108.836 135.44 108.524 135.332 108.284 135.116C108.068 134.876 107.96 134.588 107.96 134.252C107.96 133.892 108.068 133.604 108.284 133.388C108.524 133.148 108.836 133.028 109.22 133.028H118.616C119 133.028 119.3 133.148 119.516 133.388C119.756 133.604 119.876 133.892 119.876 134.252C119.876 134.588 119.756 134.876 119.516 135.116C119.3 135.332 119 135.44 118.616 135.44H109.22ZM125.356 152C124.948 152 124.612 151.868 124.348 151.604C124.084 151.34 123.952 151.004 123.952 150.596V125.288C123.952 124.88 124.084 124.544 124.348 124.28C124.612 124.016 124.948 123.884 125.356 123.884H132.088C133.84 123.884 135.4 124.256 136.768 125C138.136 125.72 139.204 126.74 139.972 128.06C140.764 129.356 141.16 130.856 141.16 132.56C141.16 134.192 140.764 135.644 139.972 136.916C139.204 138.188 138.136 139.184 136.768 139.904C135.4 140.624 133.84 140.984 132.088 140.984H126.76V150.596C126.76 151.004 126.628 151.34 126.364 151.604C126.1 151.868 125.764 152 125.356 152ZM140.404 152C140.092 152 139.84 151.94 139.648 151.82C139.48 151.7 139.324 151.52 139.18 151.28L132.268 140.264L135.076 139.544L141.52 149.84C141.88 150.416 141.94 150.92 141.7 151.352C141.484 151.784 141.052 152 140.404 152ZM126.76 138.284H132.088C133.312 138.284 134.392 138.044 135.328 137.564C136.288 137.06 137.044 136.376 137.596 135.512C138.148 134.648 138.424 133.664 138.424 132.56C138.424 131.384 138.148 130.352 137.596 129.464C137.044 128.552 136.288 127.844 135.328 127.34C134.392 126.836 133.312 126.584 132.088 126.584H126.76V138.284ZM154.773 152.18C152.829 152.18 151.101 151.76 149.589 150.92C148.101 150.056 146.925 148.868 146.061 147.356C145.221 145.844 144.801 144.116 144.801 142.172C144.801 140.204 145.197 138.476 145.989 136.988C146.805 135.476 147.921 134.288 149.337 133.424C150.753 132.56 152.385 132.128 154.233 132.128C156.057 132.128 157.641 132.548 158.985 133.388C160.353 134.204 161.409 135.344 162.153 136.808C162.897 138.272 163.269 139.94 163.269 141.812C163.269 142.196 163.149 142.508 162.909 142.748C162.669 142.964 162.357 143.072 161.973 143.072H146.673V140.768H162.261L160.713 141.884C160.737 140.492 160.485 139.244 159.957 138.14C159.429 137.036 158.673 136.172 157.689 135.548C156.729 134.924 155.577 134.612 154.233 134.612C152.865 134.612 151.665 134.936 150.633 135.584C149.601 136.232 148.797 137.132 148.221 138.284C147.669 139.412 147.393 140.708 147.393 142.172C147.393 143.636 147.705 144.932 148.329 146.06C148.977 147.188 149.853 148.076 150.957 148.724C152.061 149.372 153.333 149.696 154.773 149.696C155.637 149.696 156.501 149.552 157.365 149.264C158.253 148.952 158.961 148.568 159.489 148.112C159.753 147.896 160.053 147.788 160.389 147.788C160.725 147.764 161.013 147.848 161.253 148.04C161.565 148.328 161.721 148.64 161.721 148.976C161.745 149.312 161.613 149.6 161.325 149.84C160.533 150.512 159.525 151.076 158.301 151.532C157.077 151.964 155.901 152.18 154.773 152.18ZM175.932 152.18C174.084 152.18 172.428 151.748 170.964 150.884C169.5 149.996 168.336 148.796 167.472 147.284C166.632 145.772 166.212 144.068 166.212 142.172C166.212 140.252 166.644 138.536 167.508 137.024C168.396 135.512 169.596 134.324 171.108 133.46C172.62 132.572 174.324 132.128 176.22 132.128C178.116 132.128 179.808 132.572 181.296 133.46C182.808 134.324 183.996 135.512 184.86 137.024C185.748 138.536 186.204 140.252 186.228 142.172L185.112 143.036C185.112 144.764 184.704 146.324 183.888 147.716C183.096 149.084 182.004 150.176 180.612 150.992C179.244 151.784 177.684 152.18 175.932 152.18ZM176.22 149.66C177.612 149.66 178.848 149.336 179.928 148.688C181.032 148.04 181.896 147.152 182.52 146.024C183.168 144.872 183.492 143.588 183.492 142.172C183.492 140.732 183.168 139.448 182.52 138.32C181.896 137.192 181.032 136.304 179.928 135.656C178.848 134.984 177.612 134.648 176.22 134.648C174.852 134.648 173.616 134.984 172.512 135.656C171.408 136.304 170.532 137.192 169.884 138.32C169.236 139.448 168.912 140.732 168.912 142.172C168.912 143.588 169.236 144.872 169.884 146.024C170.532 147.152 171.408 148.04 172.512 148.688C173.616 149.336 174.852 149.66 176.22 149.66ZM184.824 152C184.416 152 184.08 151.88 183.816 151.64C183.552 151.376 183.42 151.04 183.42 150.632V144.476L184.104 141.632L186.228 142.172V150.632C186.228 151.04 186.096 151.376 185.832 151.64C185.568 151.88 185.232 152 184.824 152ZM200.583 152.18C198.687 152.18 196.983 151.748 195.471 150.884C193.959 149.996 192.759 148.796 191.871 147.284C191.007 145.772 190.575 144.056 190.575 142.136C190.575 140.24 190.995 138.536 191.835 137.024C192.699 135.512 193.863 134.324 195.327 133.46C196.791 132.572 198.447 132.128 200.295 132.128C201.903 132.128 203.355 132.476 204.651 133.172C205.947 133.844 206.991 134.744 207.783 135.872V125.288C207.783 124.856 207.915 124.52 208.179 124.28C208.443 124.016 208.779 123.884 209.187 123.884C209.595 123.884 209.931 124.016 210.195 124.28C210.459 124.52 210.591 124.856 210.591 125.288V142.28C210.543 144.152 210.075 145.844 209.187 147.356C208.323 148.844 207.135 150.02 205.623 150.884C204.135 151.748 202.455 152.18 200.583 152.18ZM200.583 149.66C201.975 149.66 203.211 149.336 204.291 148.688C205.395 148.016 206.259 147.116 206.883 145.988C207.531 144.86 207.855 143.576 207.855 142.136C207.855 140.72 207.531 139.448 206.883 138.32C206.259 137.168 205.395 136.268 204.291 135.62C203.211 134.972 201.975 134.648 200.583 134.648C199.215 134.648 197.979 134.972 196.875 135.62C195.771 136.268 194.895 137.168 194.247 138.32C193.599 139.448 193.275 140.72 193.275 142.136C193.275 143.576 193.599 144.86 194.247 145.988C194.895 147.116 195.771 148.016 196.875 148.688C197.979 149.336 199.215 149.66 200.583 149.66ZM223.948 152.18C222.532 152.18 221.128 151.94 219.736 151.46C218.344 150.98 217.216 150.26 216.352 149.3C216.088 149.012 215.98 148.688 216.028 148.328C216.076 147.968 216.256 147.656 216.568 147.392C216.904 147.152 217.252 147.056 217.612 147.104C217.972 147.152 218.272 147.308 218.512 147.572C219.088 148.244 219.844 148.76 220.78 149.12C221.74 149.48 222.796 149.66 223.948 149.66C225.724 149.66 227.008 149.36 227.8 148.76C228.592 148.136 229 147.392 229.024 146.528C229.024 145.664 228.616 144.956 227.8 144.404C226.984 143.828 225.64 143.384 223.768 143.072C221.344 142.688 219.568 142.016 218.44 141.056C217.312 140.096 216.748 138.956 216.748 137.636C216.748 136.412 217.072 135.392 217.72 134.576C218.368 133.76 219.232 133.148 220.312 132.74C221.392 132.332 222.58 132.128 223.876 132.128C225.484 132.128 226.864 132.404 228.016 132.956C229.192 133.508 230.14 134.252 230.86 135.188C231.1 135.5 231.196 135.824 231.148 136.16C231.1 136.496 230.908 136.772 230.572 136.988C230.284 137.156 229.948 137.216 229.564 137.168C229.204 137.096 228.892 136.916 228.628 136.628C228.028 135.932 227.332 135.428 226.54 135.116C225.748 134.78 224.836 134.612 223.804 134.612C222.484 134.612 221.428 134.888 220.636 135.44C219.844 135.968 219.448 136.64 219.448 137.456C219.448 138.008 219.592 138.488 219.88 138.896C220.192 139.304 220.708 139.664 221.428 139.976C222.172 140.288 223.204 140.552 224.524 140.768C226.324 141.056 227.74 141.488 228.772 142.064C229.828 142.616 230.572 143.276 231.004 144.044C231.46 144.788 231.688 145.604 231.688 146.492C231.688 147.62 231.352 148.616 230.68 149.48C230.032 150.32 229.12 150.98 227.944 151.46C226.792 151.94 225.46 152.18 223.948 152.18Z" fill="url(#paint0_linear_171_303)"/>
<path d="M167.943 156.5C167.391 156.5 166.943 156.947 166.943 157.5C166.943 158.052 167.391 158.5 167.943 158.5V156.5ZM245.966 157.5L240.193 151.726L234.419 157.5L240.193 163.273L245.966 157.5ZM169.95 158.5C170.502 158.5 170.95 158.052 170.95 157.5C170.95 156.947 170.502 156.5 169.95 156.5V158.5ZM173.964 156.5C173.412 156.5 172.964 156.947 172.964 157.5C172.964 158.052 173.412 158.5 173.964 158.5V156.5ZM177.978 158.5C178.53 158.5 178.978 158.052 178.978 157.5C178.978 156.947 178.53 156.5 177.978 156.5V158.5ZM181.992 156.5C181.439 156.5 180.992 156.947 180.992 157.5C180.992 158.052 181.439 158.5 181.992 158.5V156.5ZM186.005 158.5C186.558 158.5 187.005 158.052 187.005 157.5C187.005 156.947 186.558 156.5 186.005 156.5V158.5ZM190.019 156.5C189.467 156.5 189.019 156.947 189.019 157.5C189.019 158.052 189.467 158.5 190.019 158.5V156.5ZM194.033 158.5C194.586 158.5 195.033 158.052 195.033 157.5C195.033 156.947 194.586 156.5 194.033 156.5V158.5ZM198.047 156.5C197.495 156.5 197.047 156.947 197.047 157.5C197.047 158.052 197.495 158.5 198.047 158.5V156.5ZM202.061 158.5C202.613 158.5 203.061 158.052 203.061 157.5C203.061 156.947 202.613 156.5 202.061 156.5V158.5ZM206.075 156.5C205.523 156.5 205.075 156.947 205.075 157.5C205.075 158.052 205.523 158.5 206.075 158.5V156.5ZM210.089 158.5C210.641 158.5 211.089 158.052 211.089 157.5C211.089 156.947 210.641 156.5 210.089 156.5V158.5ZM214.103 156.5C213.55 156.5 213.103 156.947 213.103 157.5C213.103 158.052 213.55 158.5 214.103 158.5V156.5ZM218.117 158.5C218.669 158.5 219.117 158.052 219.117 157.5C219.117 156.947 218.669 156.5 218.117 156.5V158.5ZM222.13 156.5C221.578 156.5 221.13 156.947 221.13 157.5C221.13 158.052 221.578 158.5 222.13 158.5V156.5ZM226.144 158.5C226.697 158.5 227.144 158.052 227.144 157.5C227.144 156.947 226.697 156.5 226.144 156.5V158.5ZM230.158 156.5C229.606 156.5 229.158 156.947 229.158 157.5C229.158 158.052 229.606 158.5 230.158 158.5V156.5ZM234.172 158.5C234.724 158.5 235.172 158.052 235.172 157.5C235.172 156.947 234.724 156.5 234.172 156.5V158.5ZM238.186 156.5C237.634 156.5 237.186 156.947 237.186 157.5C237.186 158.052 237.634 158.5 238.186 158.5V156.5ZM167.943 158.5H169.95V156.5H167.943V158.5ZM173.964 158.5H177.978V156.5H173.964V158.5ZM181.992 158.5H186.005V156.5H181.992V158.5ZM190.019 158.5H194.033V156.5H190.019V158.5ZM198.047 158.5H202.061V156.5H198.047V158.5ZM206.075 158.5H210.089V156.5H206.075V158.5ZM214.103 158.5H218.117V156.5H214.103V158.5ZM222.13 158.5H226.144V156.5H222.13V158.5ZM230.158 158.5H234.172V156.5H230.158V158.5ZM238.186 158.5H240.193V156.5H238.186V158.5Z" fill="#ADEBDC"/>
<g clip-path="url(#clip0_171_303)">
<path d="M62.3587 144.524C62.3587 144.792 62.9241 145.15 63.6226 145.285C65.8844 145.822 67.8467 146.852 69.6761 148.464L71.5054 150.12L70.5076 148.688C69.9754 147.882 68.5785 146.628 67.4476 145.867C65.2857 144.434 62.3587 143.673 62.3587 144.524Z" fill="url(#paint1_linear_171_303)"/>
<path d="M81.5835 144.792C79.0224 146.046 75.7628 149.225 75.7628 150.523C75.7628 151.061 76.162 150.971 77.8583 149.897C80.9515 147.971 83.1135 147.3 86.5394 147.3C89.6326 147.3 90.6304 147.076 90.6304 146.359C90.6304 146.136 89.1337 145.956 87.3376 145.956C83.6124 145.956 80.6522 146.941 77.7585 149.18C76.7939 149.897 75.9957 150.434 75.9957 150.299C75.9957 150.21 76.7939 149.404 77.7585 148.509C79.6544 146.762 81.3507 145.822 83.5791 145.285C84.3441 145.106 84.9761 144.792 84.9761 144.568C84.9761 143.986 83.0137 144.121 81.5835 144.792Z" fill="url(#paint2_linear_171_303)"/>
<path d="M57.037 146.583C57.037 147.21 57.5359 147.3 60.4628 147.3C64.4209 147.3 66.9154 148.061 69.7426 150.076C71.9378 151.643 72.1707 152.359 69.9754 150.882C67.9133 149.449 66.1837 148.688 63.7224 148.15C61.0948 147.613 55.2741 148.061 55.4737 148.822C55.5402 149.135 57.2033 149.314 60.5626 149.359C65.8511 149.404 67.5141 149.852 70.8402 152.09C71.8048 152.762 72.337 152.986 72.0709 152.583C71.8713 152.225 71.7715 151.777 71.8713 151.643C72.1707 151.24 69.2437 148.867 66.7491 147.479C64.9198 146.494 63.8554 146.225 60.7954 146.046C57.4693 145.867 57.037 145.912 57.037 146.583Z" fill="url(#paint3_linear_171_303)"/>
<path d="M82.6146 148.419C79.8207 149.135 77.6254 150.255 75.7628 152.001C74.1663 153.434 74.4989 153.434 76.5943 152.001C79.6876 149.897 81.783 149.359 86.9385 149.359C90.4641 149.314 91.7613 149.18 91.8611 148.732C91.9609 148.374 91.6615 148.195 91.0296 148.195C90.4974 148.195 88.9674 148.106 87.6037 147.971C86.1735 147.837 84.1113 148.016 82.6146 148.419Z" fill="url(#paint4_linear_171_303)"/>
<path d="M58.7665 150.434C58.1678 150.613 57.0037 151.105 56.1722 151.553L54.7087 152.314L55.507 153.165C56.272 153.971 56.405 153.971 58.4339 153.299C62.525 151.867 67.5141 153.075 71.705 156.478L73.6674 158.09L75.5633 156.523C79.6876 153.075 84.9761 151.822 88.9674 153.299C90.6637 153.881 90.8633 153.881 91.728 153.165L92.6593 152.404L91.7613 151.822C87.4041 149.18 81.5835 149.583 76.3948 152.896C75.0311 153.747 73.8004 154.463 73.6009 154.463C73.4346 154.463 72.2039 153.747 70.9067 152.896C67.115 150.389 62.0593 149.359 58.7665 150.434Z" fill="url(#paint5_linear_171_303)"/>
</g>
<path d="M72.2423 123.139C72.2224 123.159 71.9538 123.212 71.6455 123.243C70.9492 123.306 69.2284 123.892 68.373 124.342C66.125 125.534 64.3346 127.417 63.2106 129.781C61.6291 133.097 61.6291 137.25 63.2106 140.556C63.5587 141.277 64.066 142.156 64.3744 142.543C64.9016 143.233 66.3239 144.667 66.9009 145.085C67.816 145.765 69.4472 146.55 70.5712 146.863C71.6355 147.167 71.5659 147.156 73.4856 147.167C75.1467 147.167 75.5744 147.114 76.7382 146.78C77.6135 146.518 79.016 145.828 79.9212 145.2C80.8661 144.552 82.4178 142.93 83.0345 141.936C85.2924 138.359 85.6107 133.568 83.8303 129.833C83.0047 128.107 81.4032 126.151 80.0206 125.199C78.6778 124.268 76.5592 123.369 75.3656 123.222C74.7986 123.159 72.292 123.097 72.2423 123.139ZM74.2416 124.98C77.4743 125.524 79.4537 126.664 81.2143 129.007C82.0299 130.095 82.7063 131.706 83.0146 133.285C83.1638 134.059 83.1638 136.319 83.0146 137.104C82.5173 139.698 80.9457 142.187 78.8469 143.715C78.1904 144.185 76.5094 144.939 75.6938 145.116C74.3311 145.42 73.2767 145.462 72.2124 145.284C71.2178 145.106 71.1979 145.106 70.3225 144.792C69.2284 144.416 68.4625 143.987 67.6071 143.307C65.2895 141.445 63.9666 138.725 63.7875 135.43C63.7477 134.666 63.9964 132.992 64.2849 132.009C64.454 131.434 64.9115 130.273 65.0806 129.99C66.0952 128.264 67.9751 126.538 69.6661 125.816C70.3822 125.503 71.6654 125.147 72.6103 124.99C73.4657 124.854 73.5155 124.854 74.2416 124.98Z" fill="url(#paint6_linear_171_303)"/>
<path d="M67.5474 128.536C66.4533 129.572 65.3691 131.601 65.0309 133.233C64.7921 134.394 64.8021 136.047 65.0408 137.156C65.2298 138.055 65.8863 139.625 66.3836 140.378C66.871 141.131 67.6568 141.978 68.3133 142.47C69.298 143.213 70.8 143.934 71.6654 144.091C72.9087 144.311 74.1421 144.311 75.3457 144.091C76.3304 143.903 78.1208 142.993 78.8867 142.271L79.3741 141.811L78.4789 142.135C77.4842 142.501 77.3151 142.533 76.1911 142.543C75.2959 142.554 74.6196 142.376 74.0426 141.978L73.6647 141.706L73.2469 141.936C71.9339 142.658 69.9744 141.936 69.0394 140.399C68.363 139.3 68.2138 138.233 68.5918 137.302C68.7808 136.852 68.7907 136.737 68.6913 136.34C68.6018 136.026 68.6018 135.765 68.6714 135.43C68.7211 135.168 68.7907 134.603 68.8305 134.164C68.9101 133.244 68.8405 133.034 68.1939 132.292C67.7364 131.758 67.6966 131.528 67.995 130.921C68.184 130.524 68.184 130.471 68.0447 129.938C67.8557 129.289 67.8458 128.861 67.9851 128.463C68.0447 128.306 68.0746 128.16 68.0547 128.139C68.0248 128.118 67.806 128.296 67.5474 128.536Z" fill="url(#paint7_linear_171_303)"/>
<path d="M70.1435 136.936C69.6661 137.124 69.4771 137.292 69.308 137.7C68.8902 138.767 69.6462 140.367 70.9194 141.058C71.5559 141.403 72.3517 141.455 72.859 141.183C73.6348 140.765 73.7542 139.625 73.1574 138.516C72.5108 137.323 71.1083 136.581 70.1435 136.936Z" fill="url(#paint8_linear_171_303)"/>
<path d="M75.9226 140.712C75.4352 140.995 75.4451 141.591 75.9425 141.863C76.4995 142.166 77.2853 141.989 77.3947 141.528C77.4842 141.183 77.3848 141.005 77.0167 140.765C76.6288 140.524 76.2906 140.503 75.9226 140.712Z" fill="url(#paint9_linear_171_303)"/>
<defs>
<linearGradient id="paint0_linear_171_303" x1="165" y1="120" x2="165" y2="483" gradientUnits="userSpaceOnUse">
<stop stop-color="#072A34"/>
<stop offset="0.0416667" stop-color="#ADEBDC"/>
</linearGradient>
<linearGradient id="paint1_linear_171_303" x1="66.9321" y1="150.12" x2="66.9321" y2="144.167" gradientUnits="userSpaceOnUse">
<stop offset="0.791667" stop-color="#ADEBDC"/>
<stop offset="1" stop-color="#ADEBDC" stop-opacity="0"/>
</linearGradient>
<linearGradient id="paint2_linear_171_303" x1="83.1966" y1="150.845" x2="83.1966" y2="144.201" gradientUnits="userSpaceOnUse">
<stop offset="0.791667" stop-color="#ADEBDC"/>
<stop offset="1" stop-color="#ADEBDC" stop-opacity="0"/>
</linearGradient>
<linearGradient id="paint3_linear_171_303" x1="63.8039" y1="152.784" x2="63.8039" y2="145.956" gradientUnits="userSpaceOnUse">
<stop offset="0.791667" stop-color="#ADEBDC"/>
<stop offset="1" stop-color="#ADEBDC" stop-opacity="0"/>
</linearGradient>
<linearGradient id="paint4_linear_171_303" x1="83.3199" y1="153.075" x2="83.3199" y2="147.927" gradientUnits="userSpaceOnUse">
<stop offset="0.791667" stop-color="#ADEBDC"/>
<stop offset="1" stop-color="#ADEBDC" stop-opacity="0"/>
</linearGradient>
<linearGradient id="paint5_linear_171_303" x1="73.684" y1="158.09" x2="73.684" y2="150.011" gradientUnits="userSpaceOnUse">
<stop offset="0.791667" stop-color="#ADEBDC"/>
<stop offset="1" stop-color="#ADEBDC" stop-opacity="0"/>
</linearGradient>
<linearGradient id="paint6_linear_171_303" x1="73.5" y1="147.167" x2="73.5" y2="123.125" gradientUnits="userSpaceOnUse">
<stop offset="0.791667" stop-color="#ADEBDC"/>
<stop offset="1" stop-color="#ADEBDC" stop-opacity="0"/>
</linearGradient>
<linearGradient id="paint7_linear_171_303" x1="72.1154" y1="144.256" x2="72.1154" y2="128.137" gradientUnits="userSpaceOnUse">
<stop offset="0.791667" stop-color="#ADEBDC"/>
<stop offset="1" stop-color="#ADEBDC" stop-opacity="0"/>
</linearGradient>
<linearGradient id="paint8_linear_171_303" x1="71.3636" y1="141.357" x2="71.3636" y2="136.847" gradientUnits="userSpaceOnUse">
<stop offset="0.791667" stop-color="#ADEBDC"/>
<stop offset="1" stop-color="#ADEBDC" stop-opacity="0"/>
</linearGradient>
<linearGradient id="paint9_linear_171_303" x1="76.4943" y1="142.013" x2="76.4943" y2="140.569" gradientUnits="userSpaceOnUse">
<stop offset="0.791667" stop-color="#ADEBDC"/>
<stop offset="1" stop-color="#ADEBDC" stop-opacity="0"/>
</linearGradient>
<clipPath id="clip0_171_303">
<rect width="39.913" height="31.7893" fill="white" transform="translate(54.0435 135.211)"/>
</clipPath>
</defs>
</svg>