<svg width="30" height="29" viewBox="0 0 30 29" fill="none" xmlns="http://www.w3.org/2000/svg">
<path d="M28.4337 19.4572L24.4002 15.573C22.3585 13.6069 19.1716 13.415 16.8809 14.9975L14.4907 12.6957C15.1879 11.7846 15.5862 10.6817 15.5862 9.48284C15.5862 7.99628 14.9887 6.55767 13.8932 5.50269L9.85966 1.61844C7.61882 -0.539479 3.9339 -0.539479 1.64328 1.61844C0.597555 2.72137 0 4.11203 0 5.59859C0 7.08516 0.597555 8.47582 1.69307 9.5308L5.67677 13.415C6.82208 14.518 8.31597 15.0455 9.76006 15.0455C10.8556 15.0455 11.9013 14.7578 12.8474 14.1823L15.3372 16.58C14.7397 17.4432 14.4409 18.4981 14.4409 19.5531C14.4409 21.0397 15.0385 22.4303 16.134 23.4853L20.1177 27.3696C21.263 28.4725 22.7569 29 24.201 29C25.6949 29 27.1887 28.4725 28.2843 27.3696C29.3798 26.3146 29.9773 24.9239 29.9773 23.4374C30.1267 21.9508 29.5292 20.5601 28.4337 19.4572ZM7.27025 11.8805L3.28655 7.99628C2.5894 7.32493 2.24083 6.46176 2.24083 5.55064C2.24083 4.63952 2.5894 3.77635 3.28655 3.105C3.9837 2.43365 4.88003 2.09797 5.82616 2.09797C6.72249 2.09797 7.66862 2.43365 8.36577 3.105L12.3993 6.9413C13.0466 7.61265 13.445 8.47582 13.445 9.38694C13.445 10.0103 13.2956 10.5378 12.9968 11.0653L11.7519 9.86647C11.3037 9.43489 10.6066 9.43489 10.1584 9.86647C9.71027 10.2981 9.71027 10.9694 10.1584 11.401L11.3037 12.5039C9.90945 13.1753 8.31597 12.9355 7.27025 11.8805ZM26.7904 25.8351C25.3961 27.1778 23.1055 27.1778 21.761 25.8351L17.7773 21.9508C17.0801 21.2795 16.7315 20.4163 16.7315 19.5052C16.7315 19.0256 16.8311 18.5461 17.0303 18.1145L18.1756 19.1695C18.3748 19.3613 18.6736 19.5052 18.9724 19.5052C19.2711 19.5052 19.5699 19.4093 19.7691 19.1695C20.2173 18.7379 20.2173 18.0666 19.7691 17.635L18.5242 16.58C19.072 16.2923 19.6695 16.1484 20.2671 16.1484C21.1634 16.1484 22.1095 16.4841 22.8067 17.1554L26.8402 20.9917C27.4875 21.6631 27.8859 22.5262 27.8859 23.4374C27.8361 24.3485 27.4875 25.2117 26.7904 25.8351Z" fill="#A8E7D8"/>
</svg>
