<svg width="30" height="29" viewBox="0 0 30 29" fill="none" xmlns="http://www.w3.org/2000/svg">
<path d="M27.4257 0H16.5347C15.9406 0 15.396 0.256637 14.9505 0.641593C14.505 0.256637 13.9604 0 13.3663 0H2.47525C1.08911 0 0 1.47566 0 3.20796V24.1239C0 25.9204 1.13861 27.3319 2.47525 27.3319H13.8614V27.5243C13.8614 28.2943 14.3564 29 15 29C15.5941 29 16.1386 28.3584 16.1386 27.5243V27.3319H27.5248C28.9109 27.3319 30 25.8562 30 24.1239V3.20796C29.9505 1.4115 28.8119 0 27.4257 0ZM2.47525 24.5089C2.32673 24.5089 2.22772 24.3805 2.22772 24.1881V3.20796C2.22772 3.01549 2.32673 2.88717 2.47525 2.88717H13.4158C13.6634 2.88717 13.8614 3.14381 13.8614 3.4646V24.5089H2.47525ZM27.7228 24.1239C27.7228 24.3164 27.6238 24.4447 27.4752 24.4447H16.0891V3.4646C16.0891 3.14381 16.2871 2.88717 16.5347 2.88717H27.4752C27.6238 2.88717 27.7228 3.01549 27.7228 3.20796V24.1239Z" fill="#A3E3D5"/>
<path d="M6.18811 9.17478H9.85148C10.4455 9.17478 10.9901 8.53318 10.9901 7.69911C10.9901 6.86504 10.495 6.22345 9.85148 6.22345H6.18811C5.59405 6.22345 5.0495 6.86504 5.0495 7.69911C5.0495 8.53318 5.54455 9.17478 6.18811 9.17478Z" fill="#A3E3D5"/>
<path d="M19.901 9.17478H23.5644C24.1584 9.17478 24.703 8.53318 24.703 7.69911C24.703 6.86504 24.2079 6.22345 23.5644 6.22345H19.901C19.3069 6.22345 18.7624 6.86504 18.7624 7.69911C18.7624 8.53318 19.3069 9.17478 19.901 9.17478Z" fill="#A3E3D5"/>
<path d="M23.6634 11.5486H20C19.4059 11.5486 18.8614 12.1902 18.8614 13.0243C18.8614 13.8584 19.3564 14.5 20 14.5H23.6634C24.2574 14.5 24.802 13.8584 24.802 13.0243C24.802 12.1902 24.2574 11.5486 23.6634 11.5486Z" fill="#A3E3D5"/>
<path d="M9.90099 11.5486H6.23763C5.64357 11.5486 5.09901 12.1902 5.09901 13.0243C5.09901 13.8584 5.59406 14.5 6.23763 14.5H9.90099C10.4951 14.5 11.0396 13.8584 11.0396 13.0243C11.0396 12.1902 10.5446 11.5486 9.90099 11.5486Z" fill="#A3E3D5"/>
<path d="M9.90099 17.1947H6.23763C5.64357 17.1947 5.09901 17.8363 5.09901 18.6704C5.09901 19.5044 5.59406 20.146 6.23763 20.146H9.90099C10.4951 20.146 11.0396 19.5044 11.0396 18.6704C11.0396 17.8363 10.5446 17.1947 9.90099 17.1947Z" fill="#A3E3D5"/>
<path d="M23.6634 17.1947H20C19.4059 17.1947 18.8614 17.8363 18.8614 18.6704C18.8614 19.5044 19.3564 20.146 20 20.146H23.6634C24.2574 20.146 24.802 19.5044 24.802 18.6704C24.802 17.8363 24.2574 17.1947 23.6634 17.1947Z" fill="#A3E3D5"/>
</svg>
