<svg width="30" height="29" viewBox="0 0 30 29" fill="none" xmlns="http://www.w3.org/2000/svg">
<path d="M15 29C14.3543 29 13.7086 28.7315 13.2119 28.2481C12.0695 27.1741 11.0265 26.2074 10.0828 25.3481C7.25166 22.7167 4.76821 20.5148 3.0298 18.2593C0.993378 15.5741 0 13.05 0 10.2037C0 7.46481 0.89404 4.88704 2.48344 3.00741C4.12252 1.07407 6.40729 0 8.84106 0C10.6788 0 12.4172 0.644444 13.9073 1.87963C14.3046 2.20185 14.6523 2.52407 15 2.9537C15.3477 2.57778 15.6954 2.20185 16.0927 1.87963C17.5828 0.644444 19.2715 0 21.1589 0C23.6424 0 25.8775 1.07407 27.5166 3.00741C29.1556 4.88704 30 7.46481 30 10.2037C30 13.05 29.0563 15.5741 26.9702 18.2593C25.2318 20.5148 22.7483 22.7704 19.9172 25.3481C18.9735 26.2074 17.8808 27.2278 16.7384 28.2481C16.2914 28.7315 15.6457 29 15 29ZM8.84106 2.41667C7.00331 2.41667 5.31457 3.22222 4.07285 4.61852C2.88079 6.06852 2.2351 8.05556 2.2351 10.2037C2.2351 12.4056 3.0298 14.5 4.71854 16.7019C6.35762 18.7963 8.74172 20.9981 11.4735 23.5222C12.4172 24.3815 13.5099 25.4018 14.6523 26.4759C14.851 26.637 15.149 26.637 15.3477 26.4759C16.4901 25.4018 17.5828 24.4352 18.5265 23.5222C21.3079 20.9444 23.6921 18.7963 25.2815 16.7019C26.9702 14.5 27.7649 12.4056 27.7649 10.2037C27.7649 8.05556 27.0695 6.06852 25.8775 4.67222C24.6358 3.22222 22.947 2.41667 21.1589 2.41667C19.8179 2.41667 18.5762 2.9 17.4834 3.75926C17.0364 4.13519 16.6391 4.56481 16.2417 5.04815C15.9437 5.42407 15.4967 5.69259 15 5.69259C14.5033 5.69259 14.106 5.47778 13.7583 5.04815C13.3609 4.56481 12.9636 4.13519 12.5166 3.75926C11.4735 2.9 10.2318 2.41667 8.84106 2.41667Z" fill="#A3E3D5"/>
</svg>
