<svg width="30" height="29" viewBox="0 0 30 29" fill="none" xmlns="http://www.w3.org/2000/svg">
<path d="M27.1228 29H20.6272C19.0405 29 17.7017 27.7547 17.7017 26.1742V21.0974C17.7017 20.7143 17.4042 20.4269 17.0075 20.4269H13.0407C12.6441 20.4269 12.3466 20.7143 12.3466 21.0974V26.1742C12.3466 27.7547 11.0574 29 9.42107 29H2.92549C1.33878 29 0 27.7547 0 26.1742V10.0339C0 9.21965 0.396677 8.50124 1.09086 8.07019L13.7349 0.359207C14.5283 -0.119736 15.52 -0.119736 16.2637 0.359207L28.9078 8.11808C29.602 8.54913 29.9987 9.26755 29.9987 10.0817V26.1742C30.0483 27.7069 28.7095 29 27.1228 29ZM13.0407 18.2717H17.0075C18.6438 18.2717 19.933 19.5169 19.933 21.0974V26.1742C19.933 26.5574 20.2305 26.8448 20.6272 26.8448H27.1228C27.5194 26.8448 27.8169 26.5574 27.8169 26.1742V10.0339C27.8169 9.98596 27.7674 9.93807 27.7674 9.89017L15.0737 2.17919C15.0241 2.1313 14.9745 2.1313 14.925 2.17919L2.33047 9.89017C2.28089 9.93807 2.23131 9.98596 2.23131 10.0339V26.1742C2.23131 26.5574 2.52881 26.8448 2.92549 26.8448H9.42107C9.81775 26.8448 10.1153 26.5574 10.1153 26.1742V21.0974C10.1153 19.5648 11.4045 18.2717 13.0407 18.2717Z" fill="#ADEBDC"/>
</svg>
