<svg width="30" height="29" viewBox="0 0 30 29" fill="none" xmlns="http://www.w3.org/2000/svg">
<path d="M28.1875 4.12231H28.0625C27.625 4.12231 27.1875 4.12231 26.75 4.12231V3.01983C26.75 1.39008 25 0 22.8125 0H3.9375C1.75 0.0479339 0 1.39008 0 3.01983V19.4132C0 20.0364 0.3125 20.6116 0.875 21.0909L10 28.281C10.5625 28.7603 11.375 29 12.25 29H23.6875C25.375 29 26.8125 27.9455 26.8125 26.6033V26.1719L29.8125 21.5223C29.9375 21.3785 29.9375 21.2347 29.9375 21.043L30 5.5124C30 4.79339 29.1875 4.17025 28.1875 4.12231ZM27.1875 8.00496H23.6875V6.23141C24.875 6.23141 26 6.23141 27.1875 6.23141V8.00496ZM9.875 25.0694L4.75 21.043H9.875V25.0694ZM23.6875 26.8909H12.6875V20.2281C12.6875 19.4612 11.875 18.886 10.9375 18.886H2.8125V3.01983C2.8125 2.5405 3.3125 2.15702 3.9375 2.15702H22.9375C23.5625 2.15702 24.0625 2.5405 24.0625 3.01983V4.07438C23.625 4.07438 23.25 4.07438 22.8125 4.07438C21.75 4.07438 20.9375 4.69752 20.9375 5.46446L20.875 21.043C20.875 21.2347 20.9375 21.3785 21 21.5223L24.0625 26.1719V26.6033C24 26.7471 23.875 26.8909 23.6875 26.8909ZM25.375 23.5355L23.625 20.8033V10.162H27.125V20.8033L25.375 23.5355Z" fill="#ADEBDC"/>
</svg>
